<?xml version="1.0" standalone="no"?>
<!DOCTYPE svg PUBLIC "-//W3C//DTD SVG 1.1//EN" "http://www.w3.org/Graphics/SVG/1.1/DTD/svg11.dtd">
<svg xmlns="http://www.w3.org/2000/svg">
<defs >
<font id="Charmonman" horiz-adv-x="561" ><font-face
    font-family="Charmonman"
    units-per-em="1000"
    panose-1="0 0 8 0 0 0 0 0 0 0"
    ascent="1200"
    descent="-700"
    alphabetic="0" />
<glyph unicode=" " glyph-name="space" horiz-adv-x="258" />
<glyph unicode="!" glyph-name="exclam" horiz-adv-x="393" d="M189 210T182 212T174 219Q216 577 231 664Q236 691 240 702T254 716T286 720Q303 720 315 718T362 705Q350 696 347 689T339 665Q328 619 267 396L217 215Q215 210 199 210Q189 210 182 212ZM125
-10T113 2T101 37Q101 67 119 87T168 107Q213 107 213 62Q213 32 195 11T146 -10Q125 -10 113 2Z" />
<glyph unicode="&quot;" glyph-name="quotedbl" horiz-adv-x="584" d="M179 472T171 472Q162 472 155 476T148 488Q148 493 152 498Q191 555 238 627Q295 719 352 797Q364 814 384 814Q392 814 407 807T435 789T448 768Q448 763 444 759Q384 699 336 647T243 545Q209
506 182 476Q179 472 171 472ZM324 467T318 467Q310 467 304 471T297 483Q297 487 300 491Q371 592 412 648T518 785Q530 800 552 800Q558 800 572 793T597 775T608 756Q608 751 605 748Q517 660 484 628L327 470Q324 467 318 467Z" />
<glyph unicode="#" glyph-name="numbersign" horiz-adv-x="650" d="M530 410T505 411L477 263Q539 264 588 268L576 204Q535 207 467 207Q452 129 430 0H340Q363 105 383 208H332H259L249 153Q244 122 237 83T223 0H133Q144 49 168 165L177 207L72 204L84 268Q117
266 188 264L217 411L108 407L118 471Q174 468 227 468Q245 563 263 670H353Q352 665 321 525L309 467H373H433L470 670H560Q530 531 517 468L622 471L612 407Q530 410 505 411ZM423 412Q400 413 363 413H299L279 315Q272 276 269 262Q298 261 358 261H394L423
412Z" />
<glyph unicode="$" glyph-name="dollar" horiz-adv-x="633" d="M524 522T503 522Q504 533 504 554Q504 608 485 634T415 665L366 402L368 401Q424 367 455 344T505 288T524 212Q524 155 494 107T410 27T288 -11L242 -253Q196 -257 178 -261L226 -11Q164 -6 112
13T51 52Q73 159 73 192Q85 200 102 202Q106 127 141 86T236 39L257 149L293 347Q224 392 192 429T159 522Q159 568 183 608T252 675T359 706L371 772L393 896Q400 893 422 891T459 889L423 705Q477 700 520 683T576 646Q558 602 539 528Q524 522 503 522ZM253
507T267 484T310 439L351 660Q300 648 277 614T253 538Q253 507 267 484ZM414 227T398 254T348 308L298 44Q354 58 384 102T414 194Q414 227 398 254Z" />
<glyph unicode="%" glyph-name="percent" horiz-adv-x="1039" d="M112 258T76 298T40 415Q40 480 66 542T142 644T256 684Q322 684 357 643T393 531Q393 471 368 408T293 301T176 258Q112 258 76 298ZM230 314T258 349T299 435T312 534Q312 581 298 605T249 630Q207
630 179 596T136 511T122 412Q122 314 188 314Q230 314 258 349ZM207 -112T182 -109T150 -104Q346 132 501 331T850 790Q861 805 876 805Q893 805 911 801T937 795Q796 621 567 327Q328 20 215 -118Q207 -112 182 -109ZM721 -12T685 28T649 145Q649 210 675 272T751
374T865 414Q931 414 966 373T1002 261Q1002 201 977 138T902 31T785 -12Q721 -12 685 28ZM839 44T867 79T908 165T921 264Q921 311 907 335T858 360Q816 360 788 326T745 241T731 142Q731 44 797 44Q839 44 867 79Z" />
<glyph unicode="&amp;" glyph-name="ampersand" horiz-adv-x="950" d="M914 313T931 288T948 225Q948 180 921 143T849 84T752 63Q689 63 628 96Q550 43 455 43Q396 43 348 64T271 124T242 214Q242 276 282 326T404 443Q401 469 401 495Q401 536 408 568Q328 552
266 504T169 384T134 226Q134 138 170 74T274 -24T432 -58Q502 -58 564 -38T663 22Q677 7 677 -9Q677 -37 636 -61T532 -99T408 -113Q310 -113 232 -75T109 36T63 212Q63 318 111 406T242 551T425 621Q443 663 474 687T548 712Q618 712 618 640Q618 620 612 600Q686
568 723 501T761 352Q761 286 738 230T671 131Q707 116 745 116Q804 116 834 149T864 233Q864 257 857 274T833 306Q847 309 864 311T893 313Q914 313 931 288ZM499 670T476 625H482Q528 625 565 616Q566 622 566 634Q566 653 560 661T537 670Q499 670 476 625ZM467
575T459 574Q452 540 452 500V482Q488 510 510 529T546 569Q517 575 482 575Q467 575 459 574ZM702 426T675 479T589 556Q575 536 557 520T503 475Q478 457 457 438Q471 350 517 273T627 154Q663 188 682 239T702 354Q702 426 675 479ZM536 94T586 123Q524 169
479 240T413 395Q341 313 341 219Q341 94 472 94Q536 94 586 123Z" />
<glyph unicode="&apos;" glyph-name="quotesingle" horiz-adv-x="380" d="M232 452T222 452Q210 452 201 459T197 478Q231 550 292 685L334 777Q338 785 345 789T362 794Q372 794 393 784T427 762T434 739Q367 652 280 524L233 456Q232 452 222 452Z" />
<glyph unicode="(" glyph-name="parenleft" horiz-adv-x="513" d="M261 -120T218 -71T146 69T117 280Q117 462 181 602T331 819T471 896Q486 896 493 890T501 875Q407 798 345 716T248 526T213 274Q213 140 244 53T342 -101Q339 -109 329 -114T304 -120Q261 -120
218 -71Z" />
<glyph unicode=")" glyph-name="parenright" horiz-adv-x="513" d="M295 896T338 847T410 707T439 496Q439 314 375 174T225 -43T85 -120Q70 -120 63 -114T55 -99Q149 -22 211 60T308 250T343 502Q343 636 312 723T214 877Q217 885 227 890T252 896Q295 896 338 847Z" />
<glyph unicode="*" glyph-name="asterisk" horiz-adv-x="453" d="M415 629T419 629Q429 629 429 619Q429 586 383 572L324 557Q377 485 383 479Q386 476 386 472Q386 462 369 462Q358 462 347 468T322 489Q299 516 292 524Q270 468 255 433Q253 428 249 427T240
430Q225 449 225 469Q225 480 229 492L244 537Q228 533 163 518L157 517Q149 517 149 525Q149 537 159 550T192 571Q209 577 243 586Q202 640 183 669Q180 674 180 678Q180 686 194 686Q223 686 252 651Q265 635 276 620Q295 665 310 706Q313 712 316 712Q319 712
325 708Q332 704 336 695T341 672Q341 659 335 641Q333 636 322 606L413 628Q415 629 419 629Z" />
<glyph unicode="+" glyph-name="plus" horiz-adv-x="476" d="M177 109T191 189Q57 189 10 186L21 258Q51 256 142 256Q165 255 206 255Q221 323 236 420H320L295 306Q289 272 285 255Q425 255 470 256L458 183Q396 188 272 188Q258 122 245 24H155Q177 109 191 189Z" />
<glyph unicode="," glyph-name="comma" horiz-adv-x="260" d="M-109 -195T-116 -180Q-36 -132 17 -53T100 123Q129 125 152 118T175 90Q175 84 170 69T155 32Q122 -34 69 -86T-64 -183Q-67 -185 -76 -190T-94 -195Q-109 -195 -116 -180Z" />
<glyph unicode="-" glyph-name="hyphen" horiz-adv-x="450" d="M77 259Q119 259 151 258Q251 256 316 256Q367 256 387 257L372 192Q349 194 281 194L145 193Q83 193 65 192L77 259Z" />
<glyph unicode="." glyph-name="period" horiz-adv-x="200" d="M48 -10T36 2T24 37Q24 67 42 87T91 107Q136 107 136 62Q136 32 118 11T69 -10Q48 -10 36 2Z" />
<glyph unicode="/" glyph-name="slash" horiz-adv-x="580" d="M-116 -181T-129 -172T-143 -159L665 881Q673 891 683 891Q695 891 709 883T723 871Q245 246 -85 -172Q-92 -181 -102 -181Q-116 -181 -129 -172Z" />
<glyph unicode="0" glyph-name="zero" horiz-adv-x="476" d="M122 -15T78 43T34 199Q34 291 73 389T179 552T327 617Q336 617 346 621T367 625Q420 625 450 566T481 419Q481 321 444 220T341 52T196 -15Q122 -15 78 43ZM264 42T306 106T369 266T391 456Q391 521
378 550T331 580Q269 580 223 518T153 362T128 180Q128 113 145 78T205 42Q264 42 306 106Z" />
<glyph unicode="1" glyph-name="one" horiz-adv-x="476" d="M345 406T314 287T271 91Q265 55 265 37Q265 19 272 4Q264 3 244 -1T204 -5Q182 -5 173 2T164 26Q164 42 172 80Q193 184 221 288T299 541Q271 517 243 496T166 447Q159 447 142 463T121 487Q205 535
313 600L342 618Q387 623 398 623Q408 623 405 612Q345 406 314 287Z" />
<glyph unicode="2" glyph-name="two" horiz-adv-x="476" d="M403 81T403 50Q403 41 396 20T383 -8Q343 6 227 6Q146 6 59 -3L35 -5Q27 2 21 16T15 38Q15 48 37 68Q92 118 123 151T260 300Q305 349 329 390T354 476Q354 513 334 534T275 555Q190 555 143 447Q128
449 121 458T114 485Q114 521 138 553T205 604T299 624Q372 624 414 584T457 482Q457 442 439 406T394 341T325 272L102 62Q161 71 206 76T296 81Q403 81 403 50Z" />
<glyph unicode="3" glyph-name="three" horiz-adv-x="476" d="M363 318T398 286T433 189Q433 126 398 79T304 7T179 -19Q109 -19 67 8T24 73Q24 89 31 98T47 107Q65 78 101 61T181 43Q226 43 260 62T313 113T332 186Q332 290 192 290Q185 290 180 302T174 331Q174
354 187 354Q234 354 273 373T335 425T358 498Q358 534 338 550T275 567Q233 567 199 552T129 503Q123 504 119 511T115 526Q115 545 139 567T204 606T293 622Q366 622 409 585T452 490Q452 433 412 387T314 326Q363 318 398 286Z" />
<glyph unicode="4" glyph-name="four" horiz-adv-x="476" d="M459 235T463 233T468 221Q468 219 464 195Q458 163 451 156Q423 168 362 171L361 163Q342 50 343 0Q318 -6 296 -6Q272 -6 254 -3T237 7Q248 63 254 100Q262 148 267 173L117 169Q56 166 24 166Q23
174 19 195T14 227Q17 230 25 235T42 247Q73 274 187 392T343 561L358 581Q375 603 382 608Q392 613 416 620T447 628Q454 628 452 619L440 561Q398 367 373 233L449 235Q459 235 463 233ZM160 226T277 229Q298 339 326 455Q275 401 213 336T101 222Q160 226 277
229Z" />
<glyph unicode="5" glyph-name="five" horiz-adv-x="476" d="M499 646T499 634Q499 613 482 592T428 555T337 540Q298 540 277 547Q264 508 250 462T236 400Q236 384 250 374T293 351Q329 335 352 320T393 275T410 200Q410 143 382 93T301 12T179 -19Q133 -19
99 -6T47 28T29 66Q29 79 37 90T57 101Q71 75 99 59T167 43Q218 43 250 67T297 126T312 192Q312 227 294 251T253 289T194 318Q189 320 183 322T169 329Q139 345 139 370Q139 401 170 498T219 622Q235 614 270 608T343 602Q399 602 436 616T494 654Q499 646 499
634Z" />
<glyph unicode="6" glyph-name="six" horiz-adv-x="476" d="M423 626T449 611T476 570Q476 555 468 542T449 524Q419 564 367 564Q232 564 159 307Q204 343 267 343Q340 343 383 300T427 190Q427 136 399 90T322 16T215 -12Q132 -12 85 44T38 192Q38 287 87 389T215
558T382 626Q423 626 449 611ZM201 293T170 245T139 133Q139 39 212 39Q267 39 295 87T324 197Q324 244 306 268T253 293Q201 293 170 245Z" />
<glyph unicode="7" glyph-name="seven" horiz-adv-x="476" d="M474 624T491 615T509 597Q508 589 499 576T479 555Q444 497 424 455T318 228L270 123Q262 105 257 84T251 47Q251 14 278 -8L254 -13Q184 -28 168 -28Q152 -28 142 -17T132 11Q132 30 144 64T172
131Q205 204 259 294T386 497L421 553Q374 552 296 552Q237 552 213 549T175 534T149 493L140 499Q137 529 137 542Q137 583 157 601T215 619Q239 619 293 612Q367 604 402 604Q428 604 440 608T462 624Q474 624 491 615Z" />
<glyph unicode="8" glyph-name="eight" horiz-adv-x="476" d="M367 292T390 255T414 171Q414 119 383 78T301 15T194 -7Q121 -7 76 29T30 124Q30 181 71 226T187 322Q153 355 135 387T116 461Q116 511 144 549T217 607T315 628Q379 628 418 597T457 507Q457 451
422 412T323 333Q367 292 390 255ZM216 451T230 428T272 379Q323 414 350 445T377 512Q377 539 361 555T313 571Q271 571 244 543T216 477Q216 451 230 428ZM245 45T275 76T306 152Q306 188 287 217T232 279Q178 245 148 210T118 127Q118 88 138 67T195 45H196Q245
45 275 76Z" />
<glyph unicode="9" glyph-name="nine" horiz-adv-x="476" d="M381 626T425 575T470 429Q470 327 421 224T290 55T114 -12Q71 -12 50 2T28 40Q28 58 39 73T65 95Q79 79 98 70T151 60Q203 60 237 84T296 159T344 295Q301 271 249 271Q175 271 128 314T81 427Q81
482 111 527T192 599T301 626Q381 626 425 575ZM312 311T340 359T369 477Q369 585 296 585Q243 585 212 536T180 417Q180 311 258 311Q312 311 340 359Z" />
<glyph unicode=":" glyph-name="colon" horiz-adv-x="200" d="M98 313T86 325T74 360Q74 390 92 410T141 430Q186 430 186 385Q186 355 168 334T119 313Q98 313 86 325ZM294 -10T282 2T270 37Q270 67 288 87T337 107Q382 107 382 62Q382 32 364 11T315 -10Q294
-10 282 2Z" />
<glyph unicode=";" glyph-name="semicolon" horiz-adv-x="260" d="M124 313T112 325T100 360Q100 390 118 410T167 430Q212 430 212 385Q212 355 194 334T145 313Q124 313 112 325ZM119 -195T112 -180Q192 -132 245 -53T328 123Q357 125 380 118T403 90Q403 84
398 69T383 32Q350 -34 297 -86T164 -183Q161 -185 152 -190T134 -195Q119 -195 112 -180Z" />
<glyph unicode="&lt;" glyph-name="less" horiz-adv-x="480" d="M437 336L339 298Q308 286 256 265T174 232Q269 183 406 117L354 33L329 48Q123 177 42 207L63 263Q68 266 73 267T83 271Q335 369 440 415L437 336Z" />
<glyph unicode="=" glyph-name="equal" horiz-adv-x="476" d="M364 273T157 273Q80 273 61 272L75 349L175 347Q357 342 407 342L452 343L436 268Q364 273 157 273ZM331 93T123 93Q46 93 28 92L41 169L141 167Q324 162 373 162L418 163L402 88Q331 93 123 93Z" />
<glyph unicode="&gt;" glyph-name="greater" horiz-adv-x="480" d="M432 207Q347 179 94 51L58 33L36 117Q210 189 308 232Q258 257 178 292L83 336L108 415Q179 378 384 284Q398 278 410 273T431 263L432 207Z" />
<glyph unicode="?" glyph-name="question" horiz-adv-x="420" d="M165 185Q149 206 149 244Q149 277 161 303T193 351T253 409Q289 443 309 466T343 519T357 587Q357 669 289 669Q236 669 209 625T182 507Q182 465 188 444Q143 444 119 468T94 540Q94 587 117
625T184 687T287 710Q361 710 403 674T446 573Q446 532 429 500T389 446T320 384Q283 353 265 332T240 288T232 227Q232 193 238 169L165 185ZM126 -10T114 2T102 37Q102 67 120 87T169 107Q214 107 214 62Q214 32 196 11T147 -10Q126 -10 114 2Z" />
<glyph unicode="@" glyph-name="at" horiz-adv-x="754" d="M534 404T555 401T580 392Q556 358 530 291T503 182Q503 160 511 152T538 143Q572 143 601 167T646 234T663 325Q663 416 605 470T449 524Q358 524 284 478T168 355T125 189Q125 84 186 28T352 -29Q406
-29 461 -14T550 29Q553 26 555 18T558 2Q558 -20 528 -41T448 -76T344 -90Q263 -90 198 -57T96 39T58 189Q58 293 110 383T253 526T453 580Q537 580 598 548T691 461T724 335Q724 270 697 215T623 127T522 94Q478 94 454 115T425 173Q399 137 367 113T303 89Q271
89 247 112T223 177Q223 227 257 284T343 381T442 420Q465 420 478 411T495 387Q506 404 523 404Q534 404 555 401ZM363 145T397 199T463 332Q463 345 454 356T429 368Q401 368 372 331T322 245T302 171Q302 145 326 145Q363 145 397 199Z" />
<glyph unicode="A" glyph-name="A" horiz-adv-x="820" d="M820 116T820 101Q820 75 798 50T741 10T673 -6Q621 -6 594 32T560 99T542 202Q539 223 531 229T500 236L331 235Q249 102 183 46T43 -11Q-3 -11 -27 7T-51 54Q-51 77 -36 95T6 120Q6 80 17 67T55 53Q105
53 152 92T272 236Q249 238 240 244T230 262Q230 271 235 286T245 306Q261 300 310 293Q366 378 432 486T512 617Q531 648 566 706Q578 724 587 732T612 740Q625 740 643 735Q632 717 627 683T620 610L619 569Q619 517 621 448T627 334Q633 246 641 193T668 104T723
68Q746 68 768 83T808 124Q820 116 820 101ZM493 283T535 285L534 442Q534 526 541 581Q449 434 430 401L363 288Q420 283 465 283Q493 283 535 285Z" />
<glyph unicode="B" glyph-name="B" horiz-adv-x="730" d="M563 361T610 322T658 208Q658 141 618 90T509 11T357 -17Q310 -17 268 -8T194 15Q182 -3 144 -3Q128 -3 110 -1T81 5Q94 24 99 39T112 86Q142 211 183 409T225 639Q225 649 220 652T202 655Q176 655 130
648Q78 642 65 642Q50 642 43 646T36 661Q36 670 41 688T51 714Q53 713 60 709T83 702T125 700H356Q496 700 580 656T664 528Q664 412 495 372Q563 361 610 322ZM453 36T504 83T555 213Q555 276 523 306T421 336Q375 336 343 332Q335 340 329 353T323 380Q323 393
329 396Q337 395 360 394T398 392Q443 392 480 411T539 464T561 541Q561 599 519 627T397 656Q362 656 345 649T318 620T299 554Q230 208 209 78Q267 36 353 36Q453 36 504 83Z" />
<glyph unicode="C" glyph-name="C" horiz-adv-x="760" d="M219 -17T143 55T66 266Q66 383 121 487T273 653T490 716Q568 716 633 691T722 629Q695 590 687 484L654 480Q657 521 645 557Q630 604 590 634T481 664Q386 664 314 607T203 459T164 268Q164 153 216
97T361 41Q464 41 533 105T631 265Q655 265 665 254T675 217Q675 162 632 108T514 18T347 -17Q219 -17 143 55Z" />
<glyph unicode="D" glyph-name="D" horiz-adv-x="830" d="M298 -13T222 -5Q164 1 132 3Q119 4 113 6T91 18Q101 32 105 40T114 64Q125 107 172 360T219 633Q219 638 216 641T205 645Q200 645 156 637Q87 624 64 624Q28 624 28 650Q28 661 33 677T44 703Q58 698
73 696T122 694Q188 694 284 701Q386 707 425 707Q600 707 688 634T777 416Q777 310 730 212T584 50T337 -13Q298 -13 222 -5ZM456 40T528 93T639 234T678 422Q678 545 613 602T406 660Q368 660 351 656T329 644T319 619Q301 530 228 150Q226 142 222 119T217 85Q217
77 221 73T235 63Q257 53 290 47T358 40Q456 40 528 93Z" />
<glyph unicode="E" glyph-name="E" horiz-adv-x="712" d="M680 702T685 698T694 687Q664 611 662 593L652 591Q648 607 642 615T620 626Q431 651 352 651Q330 651 324 648T313 634Q296 592 252 405H356Q462 405 508 408T590 423L595 418Q587 396 585 383T581 362Q578
350 574 347T558 344Q476 344 240 348Q200 161 200 106Q200 69 222 58T304 46Q399 46 491 66T638 138Q645 136 645 133Q639 123 637 116T631 92Q624 55 614 38T579 15Q502 0 441 -6T306 -13Q232 -13 190 -5T127 27T106 95Q106 161 151 349H137Q124 349 126 357Q127
366 139 385T159 405H164Q187 502 197 553T208 628Q208 642 202 645T176 649Q125 649 73 633L70 634Q71 648 76 674T87 708Q181 701 277 701L674 702Q680 702 685 698Z" />
<glyph unicode="F" glyph-name="F" horiz-adv-x="580" d="M604 722T608 716Q603 710 597 684T589 642Q586 625 574 625Q532 625 416 635Q391 637 353 639T299 642Q281 642 274 638T264 619Q244 519 217 375Q259 372 316 372Q449 372 529 396L534 392Q528 382 522
358T514 318L367 321Q339 322 207 325Q156 56 156 32Q156 16 157 12Q127 -2 94 -2Q53 -2 53 20Q53 31 66 96Q73 134 91 218Q99 256 135 438T172 642Q172 648 168 650T154 652L113 650L87 649Q72 649 72 659Q72 669 88 707Q204 700 352 700Q473 700 523 704T599
722Q604 722 608 716Z" />
<glyph unicode="G" glyph-name="G" horiz-adv-x="795" d="M681 337T754 362Q756 358 759 340T762 314Q735 307 727 299T713 268Q675 95 641 -23T554 -226Q513 -292 434 -353T230 -414Q181 -414 144 -404T86 -379T59 -353L47 -329Q67 -342 118 -352T215 -362Q357
-362 450 -254T594 75Q513 -21 370 -21Q285 -21 219 12T116 112T79 274Q79 392 135 492T292 653T518 713Q590 713 658 693T770 639Q746 573 733 489Q727 489 719 488T706 484Q706 489 704 515T700 555Q690 611 635 634T512 657Q400 657 325 601T213 458T176 273Q176
160 228 97T385 34Q456 34 510 62T595 138T625 245Q625 275 616 284T585 294Q537 294 449 281Q449 293 452 311T459 337Q681 337 754 362Z" />
<glyph unicode="H" glyph-name="H" horiz-adv-x="830" d="M743 51T776 61T836 89Q837 85 837 78Q837 53 812 34T749 4T678 -6Q622 -6 579 18T532 81Q529 107 539 179T566 334Q528 335 437 335Q327 335 268 334Q212 94 195 24Q193 14 190 11T177 7Q136 5 122 3T92
-7L86 -5L104 43Q137 129 156 187T194 334H177Q167 334 157 350T146 381Q146 387 149 389T163 391Q167 391 177 391T206 390Q238 553 238 614Q238 637 230 644T198 652Q181 652 152 650T106 644Q102 652 100 663T97 683Q97 696 109 696Q256 700 292 703T335 706Q354
706 354 698Q354 679 304 483L281 387Q373 385 452 385Q538 385 577 386Q611 540 661 706Q667 727 679 735Q700 751 771 769T869 787Q887 787 892 776T897 750Q871 750 822 731T757 692Q739 669 707 574T655 389Q625 249 625 134Q625 98 630 81T650 58T695 51Q743
51 776 61Z" />
<glyph unicode="I" glyph-name="I" horiz-adv-x="394" d="M61 8Q78 15 87 22T99 41Q125 138 174 355T229 611Q230 615 230 621Q230 636 220 641T185 647Q132 647 97 640Q97 661 103 677T122 693Q239 694 277 696T372 704Q377 702 378 688T378 664Q345 660 334
655T319 633Q311 602 240 254Q200 57 196 40Q190 14 159 5T71 -4L61 8Z" />
<glyph unicode="J" glyph-name="J" horiz-adv-x="520" d="M-6 -168T-34 -160T-99 -135Q-104 -100 -104 -68T-104 -31L-87 -27Q-67 -80 -38 -104T52 -128Q108 -128 146 -106T213 -34T262 102Q284 189 325 399T367 645Q367 656 361 659T338 663Q280 663 227 644T141
588T108 500Q108 466 123 439T164 398Q147 395 135 395Q82 408 52 437T21 514Q21 621 173 668T574 715Q586 715 590 669L508 671Q486 671 475 665T458 642T443 586Q432 534 398 339Q391 301 375 213T351 90Q320 -40 240 -104T38 -168Q-6 -168 -34 -160Z" />
<glyph unicode="K" glyph-name="K" horiz-adv-x="777" d="M1405 -124T1405 -148Q1405 -186 1373 -214T1283 -258T1149 -274Q975 -274 810 -192T507 24T269 320Q261 281 238 165Q220 71 210 25Q207 10 202 5T185 0Q138 -1 124 -3T101 -12Q90 -12 90 -5Q126 74 175
284T244 609Q248 635 248 638Q248 649 243 651T225 654Q198 654 166 649Q132 645 115 645Q101 645 96 648T90 660Q90 678 99 702T118 726Q119 708 155 704T251 699Q308 699 409 708Q424 710 452 712Q452 704 449 685T445 660L364 658Q351 658 347 645Q312 523 275
348Q316 378 366 418T464 499Q556 576 618 625T747 718H763Q772 713 820 705Q850 700 858 697V689Q842 692 744 626T527 473T353 341Q450 192 584 73T867 -115T1156 -184Q1236 -184 1291 -163T1387 -103Q1405 -124 1405 -148Z" />
<glyph unicode="L" glyph-name="L" horiz-adv-x="640" d="M586 18T586 -40L566 -35Q565 -17 561 -11T542 0Q483 18 332 18Q227 18 142 10T3 -13Q-19 29 -19 44Q-19 56 -3 58Q55 68 92 108T151 217T193 391Q202 439 212 505T227 601Q225 585 237 669Q239 685 257
693Q279 703 347 710T462 718Q467 717 470 703T473 674Q473 664 472 661Q455 664 434 665T397 667Q368 667 355 654T333 609L312 514Q282 374 265 310Q236 200 202 142T123 57Q185 61 251 71T330 84Q398 95 434 100T502 105Q542 105 557 96T576 66Q586 18 586 -40Z"
/>
<glyph unicode="M" glyph-name="M" horiz-adv-x="1200" d="M1224 165T1224 126Q1224 83 1196 48T1120 -6T1017 -26Q922 -26 883 34T844 210Q844 296 860 363T911 529Q809 376 669 115Q658 93 653 80T647 53L648 38Q648 28 639 26Q606 17 571 -1Q551 -10 548 -10Q544
-10 541 -6T536 4Q550 13 550 57Q550 100 539 191T508 417Q453 284 398 189T272 35T115 -24Q47 -24 -2 13T-52 122Q-52 160 -38 198T-1 262T52 287Q61 287 71 284T92 276Q63 247 45 204T27 120Q27 73 51 50T121 26Q196 26 259 88T376 258T489 530Q479 583 474 605Q458
681 458 691Q458 709 474 717T517 725Q551 725 565 710T579 662Q579 609 567 543Q572 484 600 334Q603 318 614 258T631 152Q721 322 782 426T904 626Q940 682 958 707T989 741T1016 751Q1049 751 1079 707Q1059 699 1039 675T1003 610Q977 545 959 433T940 236Q940
38 1056 38Q1109 38 1144 77T1198 180Q1224 165 1224 126Z" />
<glyph unicode="N" glyph-name="N" horiz-adv-x="780" d="M812 805T840 798T891 781T914 768Q837 768 790 700T713 517T640 176Q612 29 608 8Q598 2 579 -3T543 -8Q457 164 359 356Q331 409 309 454T268 536Q246 439 232 361T199 170Q173 14 169 -11H124Q104 -11
94 -2T83 19Q83 36 105 132T153 335Q177 431 196 516T216 614Q216 622 209 625T186 629L152 628Q126 626 116 626Q100 626 95 630T89 647Q89 671 97 692Q112 685 135 681T181 677Q223 677 269 694Q274 694 279 690T288 678L364 525Q442 367 560 131Q619 433 647
558T709 744T792 805Q812 805 840 798Z" />
<glyph unicode="O" glyph-name="O" horiz-adv-x="792" d="M223 -15T145 64T66 293Q66 415 118 512T265 664T478 719Q617 719 695 642T774 417Q774 297 722 198T576 42T362 -15Q223 -15 145 64ZM470 40T536 91T636 226T670 408Q670 539 613 603T458 667Q369 667
303 617T202 481T167 292Q167 166 221 103T376 40Q470 40 536 91Z" />
<glyph unicode="P" glyph-name="P" horiz-adv-x="645" d="M85 -7T79 -2T72 17Q72 40 88 122T138 355Q159 450 176 533T193 633Q193 641 176 641Q166 641 128 635Q74 626 48 626Q25 626 16 631T7 651Q7 664 12 683T24 712Q60 698 115 698Q162 698 250 707Q262 708
313 712T404 716Q522 716 580 674T639 541Q639 465 602 407T500 318T360 286Q306 286 285 300T263 333Q263 342 267 350T278 364Q287 357 309 352T359 346Q416 346 457 370T519 435T541 527Q541 660 392 660Q352 660 320 651T282 622Q262 539 218 306T173 39Q173
30 174 21T175 3Q135 -7 105 -7Q85 -7 79 -2Z" />
<glyph unicode="Q" glyph-name="Q" horiz-adv-x="779" d="M842 -49T848 -58T854 -81Q854 -110 831 -133T767 -170T674 -184Q495 -184 356 -8H346Q270 -8 212 19T121 95T88 206Q88 283 136 328T258 375Q298 268 334 189T408 49Q480 68 535 124T621 260T652 428Q652
543 598 602T440 661Q361 661 301 627T206 533T164 394Q122 394 107 408T91 450Q91 511 141 572T275 673T455 713Q544 713 611 677T714 573T751 415Q751 319 711 233T601 87T440 3Q489 -59 546 -91T672 -124Q726 -124 768 -104T831 -41Q842 -49 848 -58ZM155 140T200
95T320 42Q253 143 195 291Q155 259 155 204Q155 140 200 95Z" />
<glyph unicode="R" glyph-name="R" horiz-adv-x="720" d="M1389 -109T1393 -114T1397 -131Q1397 -160 1374 -187T1302 -231T1181 -249Q1023 -249 868 -165T580 54T343 345Q344 354 347 357T357 362Q445 371 499 384T586 428T620 514Q620 593 558 631T398 669Q376
669 365 665T351 648Q299 450 260 221L224 4Q199 6 165 -6T122 -33Q120 -33 116 -31T109 -27Q144 109 198 362T252 651Q252 660 248 662T231 665Q188 665 153 643T97 583T77 503Q77 441 117 403Q104 403 78 407T37 417Q13 426 0 451T-13 508Q-13 573 38 619T176
689T363 713Q451 713 532 695T665 637T718 537Q718 486 681 443T583 371T456 330Q516 221 632 106T897 -86T1195 -164Q1263 -164 1310 -148T1380 -103Q1389 -109 1393 -114Z" />
<glyph unicode="S" glyph-name="S" horiz-adv-x="550" d="M172 -12T129 -2T57 23T21 52Q26 77 31 123T38 192Q49 201 66 203Q70 123 107 81T214 38Q287 38 330 81T374 191Q374 224 363 247T332 288T276 330Q226 365 196 391T147 451T129 528Q129 583 159 623T242
685T360 707Q423 707 475 689T541 649Q501 559 494 528Q479 522 458 522Q471 557 471 583Q471 623 441 644T361 665Q291 665 258 627T224 539Q224 491 254 458T332 396Q384 364 414 341T464 282T485 198Q485 133 449 86T353 13T219 -12Q172 -12 129 -2Z" />
<glyph unicode="T" glyph-name="T" horiz-adv-x="597" d="M76 306T45 348T13 459Q13 539 58 598T182 690T361 722Q409 722 454 716T560 697Q596 690 632 685T694 679Q738 679 774 693T834 740Q830 671 788 632T670 592Q626 592 582 603T465 638Q405 659 364 669T287
680Q230 680 190 651T130 576T109 476Q109 417 137 376T230 304L226 299Q148 299 125 291Q76 306 45 348ZM48 -15T9 -7T-55 13Q-63 44 -63 82L-57 93Q8 23 98 23Q264 23 317 253Q363 450 388 549Q408 576 436 597T489 629L498 626Q480 588 465 526T426 347Q418
303 407 256Q372 114 290 50T93 -15Q48 -15 9 -7Z" />
<glyph unicode="U" glyph-name="U" horiz-adv-x="836" d="M899 104T899 92Q899 66 869 43T792 5T703 -9Q635 -9 597 28T558 135V143Q513 72 445 32T304 -8Q250 -8 209 15T145 79T122 171Q122 214 136 280T176 450Q194 520 203 562T213 625Q213 637 209 642T192
647Q177 647 151 640Q113 631 97 631Q76 631 68 638T60 660Q60 670 63 684T68 702Q82 693 112 693Q141 693 188 698Q238 702 252 702Q283 702 296 690T310 652Q310 609 269 445Q243 334 231 272T218 170Q218 120 243 88T321 55Q374 55 427 88T519 180T573 308Q595
417 607 467T646 611Q659 656 666 675T681 701T704 709Q721 709 750 706T791 700Q779 691 772 680T754 641Q709 522 665 287Q658 247 655 221T651 168Q651 110 671 80T751 49Q796 49 831 66T890 109Q899 104 899 92Z" />
<glyph unicode="V" glyph-name="V" horiz-adv-x="669" d="M805 829T805 787Q805 763 795 741T758 675Q736 639 634 484Q526 321 463 217T362 15Q357 1 354 -2T340 -6Q272 -10 262 -20Q256 -17 252 -13Q263 23 263 127Q263 216 256 328T242 499Q232 578 205 609T121
641Q81 641 52 627T-11 578Q-18 585 -18 604Q-18 613 -17 617Q-12 641 12 662T75 695T159 708Q244 708 281 660T327 503Q335 406 337 91Q355 123 403 205Q536 439 608 574T688 766Q689 770 689 777Q689 793 678 811Q683 812 702 818Q739 829 760 829Q805 829 805
787Z" />
<glyph unicode="W" glyph-name="W" horiz-adv-x="935" d="M1037 770T1061 758T1102 728Q1082 726 1076 724Q990 693 885 483T693 15Q693 14 691 9T686 0T675 -6Q658 -6 629 -17Q610 -24 601 -24Q584 -24 584 -4Q583 38 583 35Q579 140 565 233T526 451L517 500Q464
412 379 241T274 14Q273 10 271 4T267 -3T261 -5Q231 -8 214 -12T174 -29Q168 -29 167 -26T166 -15Q179 84 179 233Q179 351 173 461T158 609Q155 621 149 626T128 632Q111 632 82 623Q64 619 62 619Q53 619 49 630T44 652Q44 664 51 665Q94 674 135 684Q266 713
269 713Q276 713 278 708T278 696Q277 692 272 683T263 650T257 588Q254 534 250 382T245 99Q321 253 481 585Q487 599 493 610T503 631Q508 637 535 644T580 652Q590 544 603 440T620 312Q638 186 646 106Q746 397 838 583T1009 770Q1037 770 1061 758Z" />
<glyph unicode="X" glyph-name="X" horiz-adv-x="802" d="M692 754T717 738T765 705T788 680Q788 674 781 669Q612 516 473 383L509 285L550 174Q575 110 599 87T661 63Q723 63 769 116Q772 113 774 104T776 87Q776 67 756 43T700 3T622 -13Q573 -13 539 16T478
122Q436 248 409 320Q337 248 257 160Q201 98 170 48T138 -54Q138 -70 142 -90Q125 -83 107 -78Q69 -64 54 -54T39 -19Q39 11 62 48T113 118T198 211L378 403L364 439Q347 487 324 543Q287 637 200 637Q175 637 156 631T108 611L85 600Q74 611 74 623Q74 642 98
660T162 691T239 704Q350 704 394 593Q419 530 441 469L675 713Q682 720 682 728Q682 739 673 750Q674 754 686 754Q692 754 717 738Z" />
<glyph unicode="Y" glyph-name="Y" horiz-adv-x="700" d="M910 754T910 700Q910 687 906 676T897 658Q879 665 842 665Q734 665 637 592T471 399T378 147Q373 117 365 49L361 18Q359 7 355 4T342 0Q308 0 281 -2T235 -13Q230 -6 230 -2Q270 64 291 171T313 370Q313
484 276 550T160 617Q112 617 83 593T20 518Q9 522 3 532T-3 556Q-3 583 19 619T83 682T180 709Q276 709 327 625T378 395Q378 377 376 341Q422 447 499 542T666 696T836 754Q910 754 910 700Z" />
<glyph unicode="Z" glyph-name="Z" horiz-adv-x="732" d="M979 -42T984 -56T990 -88Q990 -117 976 -146T932 -194T855 -213Q790 -213 718 -191T531 -123L432 -85Q321 -44 222 -21T19 2Q15 2 11 18T7 46Q7 56 10 63T17 70Q38 70 60 78T95 97Q134 127 233 232T488
508Q515 537 546 572T613 644Q592 645 551 645Q406 645 315 631T206 586Q199 574 193 558T185 537Q179 537 170 541T158 549Q158 563 159 571L161 659Q161 673 168 682T187 692Q301 699 452 699L630 698Q667 697 723 697Q737 697 740 679T742 639Q719 635 699 614Q609
519 522 431Q339 244 224 120Q202 96 183 82T140 58Q196 47 254 31T409 -15Q459 -31 484 -38Q586 -68 665 -84T809 -101Q880 -101 919 -86T970 -37Q979 -42 984 -56Z" />
<glyph unicode="[" glyph-name="bracketleft" horiz-adv-x="550" d="M511 824T510 813Q509 800 504 791T491 781L329 782Q238 311 175 -78Q239 -76 353 -76Q353 -80 353 -95T351 -120T339 -130H67L81 -53Q198 573 236 790Q242 820 242 837Q276 833 387 833Q418
833 506 837Q511 824 510 813Z" />
<glyph unicode="\" glyph-name="backslash" horiz-adv-x="559" d="M294 -178T291 -176T287 -169Q277 209 270 370T237 874Q243 880 275 890T316 901Q323 901 323 892Q336 481 343 331T374 -148Q373 -154 342 -166T298 -178Q294 -178 291 -176Z" />
<glyph unicode="]" glyph-name="bracketright" horiz-adv-x="550" d="M533 837L519 760Q402 134 364 -83Q358 -113 358 -130Q324 -126 213 -126Q182 -126 94 -130Q89 -117 90 -106Q91 -93 96 -84T109 -74L271 -75Q362 396 425 785Q361 783 247 783Q247 787 247
802T249 827T261 837H533Z" />
<glyph unicode="^" glyph-name="asciicircum" horiz-adv-x="540" d="M420 396L399 454Q393 469 377 514T341 604L298 543Q230 447 186 388L94 402Q238 580 328 708H393Q423 620 479 490Q488 467 497 446T514 404L420 396Z" />
<glyph unicode="_" glyph-name="underscore" horiz-adv-x="600" d="M24 0L351 -1Q474 -1 503 0L491 -65Q459 -63 402 -63Q339 -63 213 -65L91 -66Q29 -66 11 -67L24 0Z" />
<glyph unicode="`" glyph-name="grave" horiz-adv-x="400" d="M273 486T263 495Q243 511 196 566T128 653Q138 673 156 690T188 707Q194 707 197 700Q231 634 253 594T311 499Q301 486 285 486Q273 486 263 495Z" />
<glyph unicode="a" glyph-name="a" horiz-adv-x="520" d="M649 241T649 211Q649 163 611 111T515 23T410 -12Q372 -12 344 10T303 67Q276 33 238 13T170 -8Q144 -8 118 7T74 47T55 95Q78 197 96 293Q100 313 130 343T202 396T282 418Q317 418 353 397Q360 414
364 418T376 424L463 429L466 427Q454 417 448 405T437 377Q419 316 400 230T381 110Q381 82 394 59T437 36Q467 36 506 62T580 135T631 241Q649 241 649 211ZM216 52T236 66T273 104T298 157L314 232Q332 324 339 353Q313 365 284 365Q237 365 214 336T182 269L151
118Q153 93 169 73T202 52Q216 52 236 66Z" />
<glyph unicode="b" glyph-name="b" horiz-adv-x="495" d="M495 984T435 953T328 835T244 585Q228 514 198 361T151 114Q151 84 163 65T201 46Q246 46 270 101T295 220Q295 258 286 294T260 356Q259 366 281 391T313 419Q337 381 358 357T416 318T510 302Q597 302
642 348Q647 343 647 336Q647 316 624 297T561 265T479 252Q418 252 370 274Q379 243 379 209Q379 150 353 99T284 18T192 -12Q156 -12 124 3T73 43T54 93Q68 174 97 316T147 546Q209 810 318 939T564 1068Q627 1068 658 1043T705 970L704 961Q672 974 645 979T584
984Q495 984 435 953Z" />
<glyph unicode="c" glyph-name="c" horiz-adv-x="392" d="M185 -5T147 16T85 66T62 112Q82 187 91 230T111 327Q114 346 142 369T208 408T279 425Q318 425 355 406T392 350Q392 307 334 286L330 287Q328 323 310 352T268 382Q246 382 222 358T193 312Q177 226
155 121Q160 88 180 69T253 50Q318 50 388 87T501 232Q521 232 521 204Q521 156 472 108T352 27T229 -5Q185 -5 147 16Z" />
<glyph unicode="d" glyph-name="d" horiz-adv-x="525" d="M878 1058T914 1031T957 954V945Q898 973 818 973Q740 973 686 952T586 866T506 671Q469 532 433 355T397 123Q397 86 408 69T442 52Q487 52 541 97T635 214Q648 210 648 194Q648 161 615 113T526 30T408
-5Q370 -5 344 19T309 87Q280 48 240 20T162 -8Q134 -8 110 9T71 51T56 101Q63 125 69 156T80 219Q83 234 86 254T95 300Q99 321 125 350T191 400T273 421Q309 421 353 394Q369 478 387 556Q447 814 560 936T822 1058Q878 1058 914 1031ZM344 346Q328 356 308 362T272
368Q241 368 216 345T181 287Q175 262 161 191Q152 141 145 114Q145 89 157 71T187 52Q227 52 265 101T322 235L344 346Z" />
<glyph unicode="e" glyph-name="e" horiz-adv-x="418" d="M547 221T547 206Q547 161 495 112T365 29T221 -5Q167 -5 129 17T72 66T52 107Q59 133 65 169T75 219Q78 237 82 261T94 318Q98 338 129 362T199 403T265 420Q287 420 317 408T370 375T392 324Q392 287
356 252T263 195T153 170L145 128Q148 97 174 75T252 52Q302 52 356 75T457 138T530 229Q547 221 547 206ZM231 378T208 354T178 306L161 215Q221 219 263 250T305 323Q305 348 291 363T256 378Q231 378 208 354Z" />
<glyph unicode="f" glyph-name="f" horiz-adv-x="360" d="M580 990T606 975T633 933Q633 916 624 900T603 876Q570 896 541 906T473 916Q430 916 408 888T364 772T286 430L281 409L454 410Q455 406 455 399Q455 388 444 378T421 366L319 362Q288 362 271 361Q263
323 256 295Q217 106 184 -30Q119 -300 33 -438T-159 -577Q-203 -577 -242 -554T-304 -493T-328 -413Q-328 -381 -316 -364T-279 -327Q-255 -309 -247 -296Q-237 -408 -214 -462T-136 -517Q-93 -517 -59 -478T9 -348T78 -98Q96 -19 128 150Q165 336 169 357Q108
355 83 350T46 333T14 289L1 293Q12 352 26 373T63 399Q94 406 180 408Q222 599 258 706T331 866T420 951Q483 990 541 990Q580 990 606 975Z" />
<glyph unicode="g" glyph-name="g" horiz-adv-x="470" d="M434 418T434 411Q434 400 398 236T355 40L341 -24Q274 -328 154 -456T-131 -585Q-239 -585 -285 -541T-331 -436Q-331 -415 -326 -392T-313 -356Q-285 -418 -231 -447T-104 -477Q25 -477 103 -398T213
-224T263 -29Q264 -22 274 31Q250 13 224 3T178 -8Q152 -8 121 9T67 51T45 99Q67 194 88 309Q92 331 123 359T193 408T261 428Q279 428 301 420T342 396L350 450L354 451Q359 444 376 439T397 433Q419 427 424 424Q434 418 434 411ZM328 318Q333 343 333 347Q306
373 272 373Q239 373 211 349T172 286L154 192L140 112Q140 86 157 67T198 48Q216 48 237 60T274 94T297 148L328 318Z" />
<glyph unicode="h" glyph-name="h" horiz-adv-x="544" d="M666 1088T711 1052T774 965T792 870L785 855Q762 925 720 956T609 988Q466 988 372 856T222 440Q216 410 195 308L184 258Q229 316 284 366T364 417Q378 417 407 402T436 380Q417 313 397 222T377 93Q377
40 427 40Q468 40 511 70T590 145T639 231Q646 228 650 224T654 208Q654 197 651 185Q642 147 601 101T504 21T393 -12Q343 -12 316 17T289 98Q289 134 300 183T334 321Q333 325 330 327T324 329Q313 329 283 304T219 240T168 161Q164 145 155 88L144 29Q140 6
136 1T119 -4Q94 -4 72 1T51 15L58 53Q87 185 98 237T114 317Q121 358 137 441Q180 667 252 812T411 1022T592 1088Q666 1088 711 1052Z" />
<glyph unicode="i" glyph-name="i" horiz-adv-x="312" d="M122 -7T95 17T68 96Q68 109 69 116L101 268Q121 370 127 393Q132 405 146 412T178 420Q194 420 204 414T216 399Q195 306 159 124Q158 116 158 103Q158 75 170 63T205 51Q245 51 291 79T376 150T438 235Q453
229 453 215Q453 205 449 195T444 181Q425 136 379 92T275 21T168 -7Q122 -7 95 17ZM422 524T410 538T397 576Q397 607 415 628T464 649Q488 649 501 636T514 599Q514 568 495 546T446 524Q422 524 410 538Z" />
<glyph unicode="j" glyph-name="j" horiz-adv-x="280" d="M178 417T196 408T218 392Q197 298 157 75Q149 34 133 -52T108 -181Q87 -275 49 -347T-32 -457T-106 -496Q-129 -496 -153 -478T-210 -431Q-25 -410 27 -163Q49 -61 82 121T122 360Q70 347 52 347Q41 347
35 359T31 385Q98 397 165 422Q178 417 196 408ZM415 779T403 793T390 831Q390 862 408 883T457 904Q481 904 494 891T507 854Q507 823 488 801T439 779Q415 779 403 793Z" />
<glyph unicode="k" glyph-name="k" horiz-adv-x="536" d="M683 1108T726 1092T797 1042T826 954Q826 942 824 929T819 908Q750 1008 615 1008Q546 1008 478 950T350 781T246 514Q213 396 194 318T150 130Q221 229 306 331T407 434Q421 434 455 422T498 394Q408
326 307 228Q311 141 337 96T408 50Q444 50 489 79T574 157T631 265Q644 265 650 257T657 235Q657 198 612 138T503 33T382 -12Q324 -12 290 35T246 166Q174 91 104 6Q102 3 96 -5T86 -14Q78 -14 65 -2T50 20Q48 49 92 250T172 576Q220 746 292 865T452 1046T637
1108Q683 1108 726 1092Z" />
<glyph unicode="l" glyph-name="l" horiz-adv-x="401" d="M532 250T532 217Q532 200 526 182Q512 138 469 94T365 22T240 -7Q169 -7 132 29T94 130Q94 185 119 326T178 618T230 838Q282 1025 373 1025Q418 1025 440 984T462 880Q462 754 383 579T194 247Q186 183
186 146Q186 90 203 69T258 48Q308 48 358 77T449 152T509 250Q532 250 532 217ZM291 718T261 588T210 348Q285 479 340 629T395 879Q395 910 389 930T372 950Q362 950 352 926T320 825Q291 718 261 588Z" />
<glyph unicode="m" glyph-name="m" horiz-adv-x="698" d="M815 244T822 238T829 218Q829 188 797 134T713 39T602 -2Q549 -2 511 30T472 110Q472 136 483 177T513 272Q529 324 531 332Q531 335 527 337T519 340Q500 340 453 275T382 163Q372 131 346 19Q342 2
340 -4T332 -10Q326 -10 308 -5T275 9T260 25Q260 38 269 71Q292 155 305 206T333 332Q327 340 318 340Q303 340 275 309T214 226T155 118Q137 53 125 -9Q112 -9 78 -2T43 13Q43 20 53 57L58 83Q62 103 84 203T132 402Q134 411 137 415T146 419Q154 419 188 413T225
403Q206 321 183 234Q215 293 247 331T306 385T348 402Q361 402 393 390T426 370Q418 322 401 256Q506 413 553 413Q571 413 601 402T631 376Q620 341 621 343Q594 257 580 202T565 113Q565 51 623 51Q679 51 729 104T803 244Q815 244 822 238Z" />
<glyph unicode="n" glyph-name="n" horiz-adv-x="500" d="M619 224T624 218T629 201Q629 174 596 122T506 29T382 -12Q330 -12 302 13T273 81Q273 106 282 143T309 236Q325 288 335 329Q334 335 327 335Q313 335 273 299T194 218T146 151Q128 70 124 44T119 14Q118
11 117 7T115 1T110 0Q95 0 63 2T31 8Q37 44 62 158Q67 186 67 185L112 405Q113 412 116 413T131 415Q178 415 199 400Q198 396 188 351T159 235Q215 303 274 358T354 413Q365 413 398 402T434 384L416 316Q390 223 377 168T364 84Q364 38 407 38Q442 38 483 65T559
136T610 224Q619 224 624 218Z" />
<glyph unicode="o" glyph-name="o" horiz-adv-x="500" d="M661 358T661 342Q661 314 634 289T564 247T474 231Q438 231 400 242Q399 235 397 227T393 206Q390 190 382 147T371 86Q363 69 337 47T276 8T207 -8Q174 -8 140 8T84 51T61 111Q75 165 82 200T99 300Q103
324 131 351T201 397T283 415H296Q299 433 310 441T343 450Q376 450 385 437Q375 395 375 377Q375 332 407 306T498 280Q547 280 588 300T648 363Q661 358 661 342ZM237 46T258 60T286 93Q296 147 305 185Q308 199 314 230T325 286Q300 311 294 346Q294 350 293
353T288 357Q282 359 271 359Q237 359 215 340T187 289Q166 191 149 114Q150 83 172 65T217 46Q237 46 258 60Z" />
<glyph unicode="p" glyph-name="p" horiz-adv-x="474" d="M604 202T604 179Q604 160 584 132Q529 58 439 26T252 -6Q152 -6 152 28Q152 39 156 47T161 60Q186 51 214 51Q260 51 283 78T318 151T346 305Q347 318 324 334T282 351Q269 351 249 340T209 302T175 229Q164
191 151 120T116 -90Q112 -117 87 -272T31 -567Q25 -593 11 -606T-24 -626T-83 -638Q-138 -646 -177 -657L-187 -652Q-131 -613 -106 -584T-69 -520T-40 -404Q41 -14 70 139T115 381Q121 409 129 458Q132 474 138 482T157 495Q195 511 207 517T239 537Q245 535
247 531Q246 527 241 516T231 491Q226 476 218 442T204 383L195 344Q223 376 256 398T316 420Q339 420 370 404T424 365T448 322Q433 233 423 191T388 110T318 49Q399 55 464 94T587 210Q604 202 604 179Z" />
<glyph unicode="q" glyph-name="q" horiz-adv-x="530" d="M670 165T627 114T516 19T379 -49Q450 -124 450 -253Q450 -334 430 -405T367 -520T257 -565Q221 -565 200 -532T178 -454Q178 -415 213 -261T287 43Q261 20 233 6T182 -8Q152 -8 123 7T76 47T57 98Q72
163 91 258L100 304Q105 327 136 354T208 399T276 418Q300 418 320 408T356 381Q358 393 360 402T363 419Q365 431 367 444T372 475Q381 475 417 465T459 448L435 353Q412 262 381 114L352 -16Q583 89 654 254Q670 242 670 215Q670 165 627 114ZM234 49T264 74T304
137Q317 185 347 329Q312 370 274 370Q246 370 220 348T186 292Q176 248 158 151L150 106Q152 83 169 66T206 49Q234 49 264 74ZM314 -498T334 -455T364 -351T375 -246Q375 -150 336 -83Q308 -197 283 -316T258 -462Q258 -498 289 -498Q314 -498 334 -455Z" />
<glyph unicode="r" glyph-name="r" horiz-adv-x="400" d="M553 352T553 344Q553 322 535 300T485 264T415 250Q362 250 330 277T296 346Q252 342 219 310T168 232V230V230Q164 220 163 215Q154 183 124 10Q123 0 81 0Q41 0 41 14Q41 22 47 55Q65 156 86 265T112
391Q116 406 126 411T155 416Q189 416 213 406Q205 383 191 324Q219 364 254 388T327 412Q344 412 356 408T371 397Q371 295 446 295Q506 295 545 357Q553 352 553 344Z" />
<glyph unicode="s" glyph-name="s" horiz-adv-x="390" d="M121 -13T90 0T41 33T23 76Q23 96 37 107T69 121Q81 81 105 58T164 35Q200 35 223 57T246 110Q246 135 231 153T183 198Q149 225 132 246T115 296Q115 328 136 356T191 400T258 417Q295 417 329 400T363
359Q363 348 355 337T331 319Q317 343 302 355T264 367Q240 367 222 354T204 316Q204 295 219 278T265 235Q302 205 320 183T339 129Q339 94 314 61T247 8T158 -13Q121 -13 90 0Z" />
<glyph unicode="t" glyph-name="t" horiz-adv-x="343" d="M454 168T454 159Q454 152 450 138Q436 106 390 71T287 13T186 -10Q138 -10 112 19T85 97Q85 151 125 358L26 354Q25 354 22 359T18 367Q34 399 44 413H135L181 643Q245 679 299 690Q303 690 308 685T314
675Q274 656 265 613Q251 551 224 412L412 411Q411 407 411 399T412 387Q412 378 407 374T392 370L215 362Q177 163 177 110Q177 83 191 67T235 51Q280 51 336 85T448 176Q454 168 454 159Z" />
<glyph unicode="u" glyph-name="u" horiz-adv-x="472" d="M614 230T614 216Q614 192 577 137T487 39T380 -5Q340 -5 312 20T283 86Q256 49 221 22T155 -5Q124 -5 90 20T52 72L111 396Q115 415 124 415Q136 415 167 407T199 390Q199 387 190 351Q180 309 163 222T139
97Q141 83 153 72T183 60Q212 60 243 94T296 202Q314 263 342 404Q344 415 353 415Q366 415 394 407T423 388Q394 284 374 200T354 90Q354 71 365 58T399 45Q441 45 495 94T598 234Q614 230 614 216Z" />
<glyph unicode="v" glyph-name="v" horiz-adv-x="440" d="M383 419T410 394T437 329Q437 285 408 237T336 143T219 26L192 0H129Q135 10 136 17Q130 99 118 175T94 297Q84 340 74 353T44 368L11 369Q11 377 13 386T19 399Q49 403 65 407T96 418T117 426Q143 419
155 400T178 326Q187 285 192 235T206 71Q273 148 308 216T344 348Q344 375 337 394T316 432L326 437Q383 419 410 394Z" />
<glyph unicode="w" glyph-name="w" horiz-adv-x="680" d="M844 382T844 367Q844 337 820 313T757 276T679 262Q622 262 581 294Q589 264 589 230Q589 168 563 115T494 30T402 -2Q326 -2 296 75Q270 35 232 14T160 -7Q131 -7 106 9T66 50T51 102Q61 155 79 224T114
346L121 369Q136 420 184 420Q205 420 223 411Q198 346 172 254T139 108Q138 78 147 62T181 46Q213 46 237 76T278 170Q292 220 316 351Q406 351 401 314Q399 301 390 269Q373 210 366 172Q362 154 359 130T356 92Q364 67 375 56T403 45Q435 45 458 77T493 158T506
253Q506 288 498 313T470 382Q474 398 496 409T531 420Q537 420 543 414T558 394Q581 360 609 339T687 317Q725 317 767 332T836 385Q844 382 844 367Z" />
<glyph unicode="x" glyph-name="x" horiz-adv-x="415" d="M551 152T551 129Q551 94 514 63T423 12T320 -7Q221 -7 159 78Q43 -74 -5 -234Q-28 -219 -45 -197T-63 -154Q-63 -136 -39 -94Q15 2 128 134Q101 200 101 275Q101 312 107 344T128 386Q132 389 157 397Q186
405 192 411Q196 411 198 409T200 401Q190 366 185 338T179 275Q179 236 186 201Q267 290 331 347Q364 376 389 394T425 412Q434 412 440 399T450 369T453 351Q321 267 208 137Q250 55 338 55Q390 55 444 82T532 164Q551 152 551 129Z" />
<glyph unicode="y" glyph-name="y" horiz-adv-x="474" d="M379 418T411 413T447 395Q431 317 408 214T367 45Q306 -185 188 -349T-141 -513Q-235 -513 -281 -479T-327 -393Q-327 -359 -306 -332Q-276 -370 -221 -395T-93 -420Q-7 -420 60 -377T183 -231T287 50Q257
29 226 15T175 0Q155 0 129 12T85 45T66 87Q70 107 82 178Q100 299 120 388Q126 416 162 416Q174 416 193 415T218 411Q202 338 175 189Q166 133 160 106Q159 84 172 70T202 55Q223 55 254 75T302 117L321 225Q348 372 355 418Q379 418 411 413Z" />
<glyph unicode="z" glyph-name="z" horiz-adv-x="470" d="M1083 -71T1095 -87T1107 -130Q1107 -177 1072 -212T978 -267T853 -286Q769 -286 682 -256T518 -184T325 -69Q252 -23 205 5Q173 24 155 24Q142 24 131 17T98 -9Q84 -9 62 3T39 22Q140 102 208 167T339
309Q281 271 217 271Q165 271 139 295T113 356Q113 387 132 404T181 421Q206 421 222 409Q216 400 212 387T208 362Q208 322 259 322Q334 322 413 414Q429 414 446 402T464 374Q464 362 450 345Q326 187 213 83Q354 -10 462 -72T672 -173T860 -212Q942 -212 990
-176T1062 -71Q1083 -71 1095 -87Z" />
<glyph unicode="{" glyph-name="braceleft" horiz-adv-x="474" d="M476 891T487 876T497 838Q488 840 470 842T436 844Q391 844 373 823T344 743L331 662Q325 621 318 580Q306 524 268 477T181 406Q215 391 234 353T253 259Q253 227 247 191Q245 182 241 161T224
72Q209 -11 209 -44Q209 -88 229 -110T298 -133Q318 -133 328 -130Q330 -134 330 -146Q330 -157 329 -160Q326 -181 282 -181Q207 -181 165 -128T122 8Q122 23 126 55Q128 69 145 148Q155 190 165 241Q174 289 174 315Q174 344 163 355T126 367Q110 367 96 366T74
365Q60 365 53 374T46 398Q46 407 50 422T57 439Q72 435 99 435Q144 435 170 451T209 498T231 581Q238 617 244 667Q253 732 257 748Q266 793 294 825T361 874T438 891Q476 891 487 876Z" />
<glyph unicode="|" glyph-name="bar" horiz-adv-x="450" d="M316 1100H406L134 -440H44L316 1100Z" />
<glyph unicode="}" glyph-name="braceright" horiz-adv-x="474" d="M416 410T416 398Q416 389 415 382Q408 346 383 346Q335 346 313 314T278 217Q271 175 267 143Q261 97 257 75Q244 4 209 -54T121 -147T7 -182Q-8 -182 -18 -168T-30 -138Q22 -138 51 -129T97
-101T129 -45Q139 -21 148 14T167 85Q187 164 203 215T248 310T319 369Q275 382 255 412T234 485Q234 503 237 521Q241 545 251 580T265 628Q286 704 293 738Q300 780 300 794Q300 819 286 828T234 837Q212 837 188 831Q188 856 196 867T227 879Q381 879 381 747Q381
728 376 696Q371 667 349 586Q332 531 327 500Q321 466 321 445Q321 425 328 417T351 409Q383 409 413 414Q416 410 416 398Z" />
<glyph unicode="~" glyph-name="asciitilde" horiz-adv-x="480" d="M298 150T278 158T234 183Q212 196 198 202T165 209Q119 209 87 146L32 191Q48 229 81 258T156 288Q184 288 204 280T253 255Q273 242 288 236T322 229Q353 229 372 247T411 301L452 245Q437
206 403 178T327 150Q298 150 278 158Z" />
<glyph unicode="&#xa0;" glyph-name="uni00A0" horiz-adv-x="258" />
<glyph unicode="&#xa1;" glyph-name="exclamdown" horiz-adv-x="393" d="M271 428T283 416T295 381Q295 351 277 331T228 311Q183 311 183 356Q183 386 201 407T250 428Q271 428 283 416ZM207 208T214 206T222 199Q180 -159 165 -246Q160 -273 156 -284T142 -298T110
-302Q93 -302 81 -300T34 -287Q46 -278 49 -271T57 -247Q68 -201 129 22L179 203Q182 208 197 208Q207 208 214 206Z" />
<glyph unicode="&#xa2;" glyph-name="cent" horiz-adv-x="560" d="M482 473T451 505T369 544Q327 331 293 145Q355 146 390 177T444 267Q477 267 493 254T509 220Q509 184 478 155T394 110T284 93L239 -153Q191 -157 175 -161L222 98Q148 113 106 165T64 293Q64
376 94 442T181 550T315 598L351 796Q359 793 381 791T417 789L380 599Q449 593 498 565T554 497Q554 468 533 449T484 429Q482 473 451 505ZM165 186T233 155L273 369L305 543Q236 530 201 467T165 306Q165 186 233 155Z" />
<glyph unicode="&#xa3;" glyph-name="sterling" horiz-adv-x="680" d="M573 716T601 707T629 679Q629 668 620 642T603 607Q594 624 562 635T471 646Q405 646 374 626T327 558T291 394Q326 393 390 393Q442 393 459 394L449 339Q412 342 370 342L280 341Q263 271
239 233T173 150L153 128Q210 160 248 160Q279 160 307 143T372 92Q403 65 423 52T464 38Q481 38 494 56T528 132Q553 132 571 117T589 84Q589 66 569 45T516 10T446 -5Q407 -5 375 9T297 51Q259 73 237 83T191 94Q164 94 139 81T80 41Q53 20 35 10T0 0Q-3 23 -6
37T-18 63Q-13 71 -13 77Q55 83 85 100T133 166T178 341H156Q74 341 56 340L66 397L189 395L191 403Q220 541 296 628T525 716Q573 716 601 707Z" />
<glyph unicode="&#xa4;" glyph-name="currency" horiz-adv-x="662" d="M19 112L107 187Q96 203 90 229T84 286Q84 308 87 330Q93 369 112 409T156 472L96 547L164 606L228 530Q256 551 297 563T376 576Q413 576 450 564T509 530L600 606L648 547L559 472Q570 457
576 431T582 373Q582 351 579 330Q574 291 555 251T510 187L571 112L503 53L439 129Q411 108 370 96T291 83Q254 83 217 95T158 129L67 53L19 112ZM376 174T424 216T486 330Q489 348 489 365Q489 420 455 453T361 486Q291 486 242 443T181 330Q178 312 178 297Q178
240 212 207T307 174Q376 174 424 216Z" />
<glyph unicode="&#xa5;" glyph-name="yen" horiz-adv-x="800" d="M780 758T819 740T859 714Q859 710 845 698Q673 552 611 498T464 363H574Q643 363 660 364L651 309Q609 312 498 312H446L435 255Q478 254 555 254Q624 254 641 255L631 200Q590 203 480 203H425Q407
106 407 82Q407 64 417 59T447 53Q474 52 487 50T503 47Q509 47 509 28Q509 8 506 0Q412 4 350 4Q219 4 189 0Q187 10 187 18Q187 50 204 50Q243 50 278 54Q298 57 306 64T322 100T343 201H310Q202 201 179 201T150 200L160 257L352 255Q355 271 359 310H329Q221
310 198 310T170 309L180 366L363 364Q364 385 364 424Q364 543 334 606T227 669Q175 669 143 639T92 551Q68 554 68 585Q68 614 88 649T152 710T261 736Q363 736 407 669T452 480L451 412Q555 522 603 577T745 748Q753 758 764 758Q780 758 819 740Z" />
<glyph unicode="&#xa6;" glyph-name="brokenbar" horiz-adv-x="450" d="M316 1100H406L291 450H201L316 1100ZM159 210H249L134 -440H44L159 210Z" />
<glyph unicode="&#xa7;" glyph-name="section" horiz-adv-x="520" d="M479 275T460 243T403 175Q429 139 429 97Q429 53 403 13T327 -52T209 -77Q121 -77 71 -36T20 74Q20 123 47 148T121 173Q116 160 113 136T109 92Q109 41 136 11T214 -19Q250 -19 278 -5T322
33T338 81Q338 116 311 141T228 203Q187 230 163 248T123 290T106 345Q106 385 135 426T206 491Q192 514 192 544Q192 586 219 622T288 680T375 702Q415 702 452 687T489 649Q489 637 479 617T457 581T439 564Q432 564 428 567Q435 583 435 590Q435 604 416 612T358
621Q263 621 263 570Q263 545 284 525T351 475Q393 448 418 428T461 379T479 313Q479 275 460 243ZM192 338T216 316T292 262Q338 234 359 218Q373 233 380 253T388 293Q388 329 365 353T295 410Q257 436 241 450Q220 436 206 413T192 367Q192 338 216 316Z" />
<glyph unicode="&#xa8;" glyph-name="dieresis" horiz-adv-x="400" d="M335 525T323 539T310 579Q310 609 327 629T375 650Q423 650 423 598Q423 566 405 546T358 525Q335 525 323 539ZM135 524T123 538T110 578Q110 608 128 628T176 649Q224 649 224 597Q224
565 206 545T159 524Q135 524 123 538Z" />
<glyph unicode="&#xa9;" glyph-name="copyright" horiz-adv-x="850" d="M300 -6T229 29T117 131T76 288Q76 401 137 502T302 664T530 726Q621 726 689 691T795 590T833 432Q833 316 774 215T614 54T391 -6Q300 -6 229 29ZM496 49T580 102T712 243T760 431Q760
544 698 609T521 675Q418 675 334 623T201 482T152 292Q152 174 217 112T393 49Q496 49 580 102ZM342 139T294 191T246 327Q246 395 278 455T368 552T496 589Q541 589 574 575T625 539T643 496Q643 471 620 459T575 446Q574 487 546 506T480 526Q435 526 398 498T338
423T316 327Q316 269 346 238T430 206Q474 206 508 228T561 290Q577 290 588 276T599 244Q599 218 573 194T504 154T420 139Q342 139 294 191Z" />
<glyph unicode="&#xaa;" glyph-name="ordfeminine" horiz-adv-x="460" d="M536 479T536 457Q536 432 515 407T462 364T398 347Q359 347 341 374T321 448Q299 400 271 374T202 348Q161 348 139 376T116 461Q116 521 141 575T212 664T319 698Q344 698 363 693Q364
699 366 707T370 726L381 730Q387 717 407 705T448 690Q427 640 411 569T394 457Q394 400 429 400Q468 400 521 482Q536 479 536 457ZM347 615T355 650Q333 655 319 655Q279 655 253 622T214 543T202 457Q202 429 208 419T228 409Q265 409 289 458T343 604Q347
615 355 650Z" />
<glyph unicode="&#xab;" glyph-name="guillemotleft" horiz-adv-x="640" d="M225 199T319 77Q321 75 323 72T325 64Q325 59 313 57Q300 53 278 46T243 33Q239 33 237 37T232 43Q99 245 99 254Q100 262 114 276Q256 412 325 477Q330 482 333 482Q337 482 364 471T401
452V451Q401 447 389 436L350 401Q277 337 190 253Q225 199 319 77ZM515 472T542 461T579 442Q579 438 566 426Q453 327 412 288L376 253Q440 163 470 123Q481 110 507 77Q509 75 511 72T513 64Q513 60 501 57Q486 53 465 46T431 33Q426 33 424 37T420 43L373 114Q363
129 324 188T284 254Q285 262 299 276Q326 303 432 401L503 467Q505 468 506 470T509 472Q515 472 542 461Z" />
<glyph unicode="&#xac;" glyph-name="logicalnot" horiz-adv-x="476" d="M306 122Q308 145 315 177T333 236Q314 240 258 241T144 242Q95 242 59 240L79 318L164 316Q324 311 366 311Q400 311 420 313L427 307Q415 262 403 204T389 121L306 122Z" />
<glyph unicode="&#xad;" glyph-name="uni00AD" horiz-adv-x="380" d="M47 259Q88 259 120 258Q214 256 278 256Q327 256 347 257L332 192Q309 194 244 194L115 193Q53 193 35 192L47 259Z" />
<glyph unicode="&#xae;" glyph-name="registered" horiz-adv-x="714" d="M550 756T608 699T667 542Q667 459 625 389T510 278T347 237Q246 237 187 291T127 444Q127 529 170 600T287 714T448 756Q550 756 608 699ZM431 286T489 320T580 410T613 533Q613 610 567
658T438 707Q368 707 309 673T216 580T181 454Q181 372 231 329T360 286Q431 286 489 320ZM526 547T494 518T409 489L508 350H438L358 475L337 350H282L337 656Q359 662 386 665T432 668Q474 668 500 649T526 590Q526 547 494 518ZM411 517T437 533T464 584Q464
626 422 626Q407 626 382 621L365 516Q411 517 437 533Z" />
<glyph unicode="&#xaf;" glyph-name="overscore" horiz-adv-x="400" d="M405 536T315 536L159 535Q85 535 67 534L79 601L166 600Q370 597 391 597Q441 597 458 598L447 533Q405 536 315 536Z" />
<glyph unicode="&#xb0;" glyph-name="degree" horiz-adv-x="350" d="M177 473T148 499T118 571Q118 607 136 638T187 687T259 706Q306 706 335 680T365 606Q365 548 325 511T225 473Q177 473 148 499ZM266 528T285 548T304 599Q304 651 252 651Q219 651 200 631T180
578Q180 528 232 528Q266 528 285 548Z" />
<glyph unicode="&#xb1;" glyph-name="plusminus" horiz-adv-x="480" d="M179 139T201 244Q68 244 39 241L54 311Q146 303 210 305Q228 406 232 452H330Q315 417 296 306Q347 306 372 305Q390 305 413 305T462 305L448 236Q417 241 381 242T285 244Q268 159 263
102H165Q179 139 201 244ZM344 0T135 0L4 -2L18 66Q42 64 160 62T366 60Q399 60 418 62L405 -5Q344 0 135 0Z" />
<glyph unicode="&#xb2;" glyph-name="uni00B2" horiz-adv-x="387" d="M286 344T299 339T312 321Q312 309 298 270Q274 280 174 280Q109 280 77 277T37 273Q32 279 23 287T14 299Q14 307 16 312T25 323L54 350Q71 366 120 412T194 484Q227 518 244 546T261 603Q261
659 204 659Q136 659 102 577Q87 578 80 588T73 611Q73 632 92 656T145 697T220 714Q278 714 315 682T352 603Q352 532 256 451L110 329Q143 336 185 340T256 344Q286 344 299 339Z" />
<glyph unicode="&#xb3;" glyph-name="uni00B3" horiz-adv-x="387" d="M304 491T321 468T339 409Q339 366 313 332T241 278T143 258Q87 258 53 279T18 332Q18 352 32 365T70 379Q71 344 89 322T145 300Q191 300 219 332T248 412Q248 468 203 468Q193 468 169 464Q147
460 140 460Q123 460 118 471T113 506Q185 508 228 541T272 628Q272 651 263 662T232 673Q201 673 171 652T126 604Q114 606 108 614T101 636Q101 671 144 692T241 714Q296 714 328 690T360 623Q360 586 336 553T274 502Q304 491 321 468Z" />
<glyph unicode="&#xb4;" glyph-name="acute" horiz-adv-x="400" d="M192 493T182 493Q170 493 160 505Q219 575 248 613T317 709Q324 719 333 719Q347 719 374 705T402 680Q402 674 388 661Q350 627 291 576T199 499Q192 493 182 493Z" />
<glyph unicode="&#xb6;" glyph-name="paragraph" horiz-adv-x="750" d="M747 649Q747 643 746 638T745 630Q724 633 661 633H637L541 164Q482 -123 465 -248L353 -258L360 -228Q419 19 451 171L546 631Q518 630 478 626L386 189Q373 126 362 77T343 -9Q301 -193
287 -270L179 -279Q243 -59 297 200L315 288Q289 286 276 286Q195 286 143 321T91 425Q91 439 94 455Q112 565 235 624T559 696L577 784L671 796L651 700H681Q709 700 727 686T747 653V649ZM382 611Q303 593 258 554T200 446Q197 430 197 415Q197 378 219 359T294
339Q306 339 326 341L382 611Z" />
<glyph unicode="&#xb7;" glyph-name="middot" horiz-adv-x="200" d="M78 229T66 241T54 276Q54 306 72 326T121 346Q166 346 166 301Q166 271 148 250T99 229Q78 229 66 241Z" />
<glyph unicode="&#xb8;" glyph-name="cedilla" horiz-adv-x="411" d="M91 -235T91 -212Q170 -192 170 -143Q170 -131 166 -123T153 -106Q145 -96 142 -90T138 -72Q138 -52 152 -33T186 1T219 19Q230 19 239 15T253 4Q235 -1 215 -17T195 -48Q195 -56 200 -61T218
-73Q236 -84 245 -94T255 -125Q255 -152 237 -177T188 -219T125 -235Q91 -235 91 -212Z" />
<glyph unicode="&#xb9;" glyph-name="uni00B9" horiz-adv-x="387" d="M322 716T318 700Q278 531 262 460T240 352Q240 351 235 325Q230 295 230 286Q230 279 231 276Q223 272 208 270T177 267Q138 267 142 291Q161 399 222 618Q183 595 122 571Q112 571 105 582T100
608Q149 633 182 655T233 691T256 710Q262 710 269 711T282 713Q300 716 310 716Q322 716 318 700Z" />
<glyph unicode="&#xba;" glyph-name="ordmasculine" horiz-adv-x="424" d="M177 351T145 384T113 481Q113 536 136 586T203 667T308 699Q424 699 424 574Q424 517 401 466T335 383T234 351Q177 351 145 384ZM295 405T320 456T345 570Q345 612 333 628T296 645Q259
645 236 617T202 550T192 475Q192 439 204 422T244 405Q295 405 320 456Z" />
<glyph unicode="&#xbb;" glyph-name="guillemotright" horiz-adv-x="640" d="M372 244T355 229Q328 205 193 98L118 38Q116 37 115 35T111 33Q105 33 80 44T46 63Q46 67 62 79L103 111Q168 160 201 186T283 252Q229 354 211 381L182 428Q178 436 179 441Q179 445
192 448Q207 452 229 459T266 472Q271 472 273 468T275 462Q278 454 307 397Q375 259 374 251Q372 244 355 229ZM561 262T559 251Q556 242 540 229L294 28Q288 23 285 23Q281 23 256 34T222 53Q222 57 237 69L276 99Q362 165 468 252Q443 309 370 428Q366 436 367
441Q367 445 380 448Q394 452 417 459T454 472Q458 472 460 468T463 462Q561 262 559 251Z" />
<glyph unicode="&#xbc;" glyph-name="onequarter" horiz-adv-x="953" d="M322 716T318 700Q278 531 262 460T240 352Q240 351 235 325Q230 295 230 286Q230 279 231 276Q223 272 208 270T177 267Q138 267 142 291Q161 399 222 618Q183 595 122 571Q112 571 105
582T100 608Q149 633 182 655T233 691T256 710Q262 710 269 711T282 713Q300 716 310 716Q322 716 318 700ZM184 -112T159 -109T127 -104Q323 132 478 331T827 790Q838 805 853 805Q870 805 888 801T914 795Q773 621 544 327Q305 20 192 -118Q184 -112 159 -109ZM887
106T830 108Q818 31 819 -2Q801 -6 774 -6Q738 -6 739 3L758 109Q750 109 660 106Q644 105 620 104T587 104Q584 111 580 128T576 154Q579 157 584 161T598 171Q636 203 712 287T817 412Q825 424 829 430T835 438T841 441Q853 444 869 446T895 450Q902 450 902
444Q902 438 883 355Q852 219 842 171L893 173Q905 173 910 168T915 150Q915 135 907 97Q887 106 830 108ZM770 169Q785 240 804 320Q771 284 727 237T655 164L770 169Z" />
<glyph unicode="&#xbd;" glyph-name="onehalf" horiz-adv-x="953" d="M322 716T318 700Q278 531 262 460T240 352Q240 351 235 325Q230 295 230 286Q230 279 231 276Q223 272 208 270T177 267Q138 267 142 291Q161 399 222 618Q183 595 122 571Q112 571 105 582T100
608Q149 633 182 655T233 691T256 710Q262 710 269 711T282 713Q300 716 310 716Q322 716 318 700ZM164 -112T139 -109T107 -104Q303 132 458 331T807 790Q818 805 833 805Q850 805 868 801T894 795Q753 621 524 327Q285 20 172 -118Q164 -112 139 -109ZM852 66T865
61T878 43Q878 31 864 -8Q840 2 740 2Q675 2 643 -1T603 -5Q598 1 589 9T580 21Q580 29 582 34T591 45L620 72Q637 88 686 134T760 206Q793 240 810 268T827 325Q827 381 770 381Q702 381 668 299Q653 300 646 310T639 333Q639 354 658 378T711 419T786 436Q844
436 881 404T918 325Q918 254 822 173L676 51Q709 58 751 62T822 66Q852 66 865 61Z" />
<glyph unicode="&#xbe;" glyph-name="threequarters" horiz-adv-x="953" d="M304 491T321 468T339 409Q339 366 313 332T241 278T143 258Q87 258 53 279T18 332Q18 352 32 365T70 379Q71 344 89 322T145 300Q191 300 219 332T248 412Q248 468 203 468Q193 468
169 464Q147 460 140 460Q123 460 118 471T113 506Q185 508 228 541T272 628Q272 651 263 662T232 673Q201 673 171 652T126 604Q114 606 108 614T101 636Q101 671 144 692T241 714Q296 714 328 690T360 623Q360 586 336 553T274 502Q304 491 321 468ZM194 -112T169
-109T137 -104Q333 132 488 331T837 790Q848 805 863 805Q880 805 898 801T924 795Q783 621 554 327Q315 20 202 -118Q194 -112 169 -109ZM847 106T790 108Q778 31 779 -2Q761 -6 734 -6Q698 -6 699 3L718 109Q710 109 620 106Q604 105 580 104T547 104Q544 111
540 128T536 154Q539 157 544 161T558 171Q596 203 672 287T777 412Q785 424 789 430T795 438T801 441Q813 444 829 446T855 450Q862 450 862 444Q862 438 843 355Q812 219 802 171L853 173Q865 173 870 168T875 150Q875 135 867 97Q847 106 790 108ZM730 169Q745
240 764 320Q731 284 687 237T615 164L730 169Z" />
<glyph unicode="&#xbf;" glyph-name="questiondown" horiz-adv-x="420" d="M302 475T314 463T326 428Q326 398 308 378T259 358Q214 358 214 403Q214 433 232 454T281 475Q302 475 314 463ZM263 280Q279 259 279 221Q279 188 267 162T235 114T175 56Q139 22 119
-1T85 -54T71 -122Q71 -204 139 -204Q192 -204 219 -160T246 -42Q246 0 240 21Q285 21 309 -3T334 -75Q334 -122 311 -160T244 -222T141 -245Q67 -245 25 -209T-18 -108Q-18 -67 -1 -35T39 19T108 81Q145 112 163 133T188 177T196 238Q196 272 190 296L263 280Z"
/>
<glyph unicode="&#xc0;" glyph-name="Agrave" horiz-adv-x="820" d="M820 116T820 101Q820 75 798 50T741 10T673 -6Q621 -6 594 32T560 99T542 202Q539 223 531 229T500 236L331 235Q249 102 183 46T43 -11Q-3 -11 -27 7T-51 54Q-51 77 -36 95T6 120Q6 80 17
67T55 53Q105 53 152 92T272 236Q249 238 240 244T230 262Q230 271 235 286T245 306Q261 300 310 293Q366 378 432 486T512 617Q531 648 566 706Q578 724 587 732T612 740Q625 740 643 735Q632 717 627 683T620 610L619 569Q619 517 621 448T627 334Q633 246 641
193T668 104T723 68Q746 68 768 83T808 124Q820 116 820 101ZM493 283T535 285L534 442Q534 526 541 581Q449 434 430 401L363 288Q420 283 465 283Q493 283 535 285ZM611 766T601 775Q581 791 534 846T466 933Q476 953 494 970T526 987Q532 987 535 980Q569 914
591 874T649 779Q639 766 623 766Q611 766 601 775Z" />
<glyph unicode="&#xc1;" glyph-name="Aacute" horiz-adv-x="820" d="M820 116T820 101Q820 75 798 50T741 10T673 -6Q621 -6 594 32T560 99T542 202Q539 223 531 229T500 236L331 235Q249 102 183 46T43 -11Q-3 -11 -27 7T-51 54Q-51 77 -36 95T6 120Q6 80 17
67T55 53Q105 53 152 92T272 236Q249 238 240 244T230 262Q230 271 235 286T245 306Q261 300 310 293Q366 378 432 486T512 617Q531 648 566 706Q578 724 587 732T612 740Q625 740 643 735Q632 717 627 683T620 610L619 569Q619 517 621 448T627 334Q633 246 641
193T668 104T723 68Q746 68 768 83T808 124Q820 116 820 101ZM493 283T535 285L534 442Q534 526 541 581Q449 434 430 401L363 288Q420 283 465 283Q493 283 535 285ZM630 773T620 773Q608 773 598 785Q657 855 686 893T755 989Q762 999 771 999Q785 999 812 985T840
960Q840 954 826 941Q788 907 729 856T637 779Q630 773 620 773Z" />
<glyph unicode="&#xc2;" glyph-name="Acircumflex" horiz-adv-x="820" d="M820 116T820 101Q820 75 798 50T741 10T673 -6Q621 -6 594 32T560 99T542 202Q539 223 531 229T500 236L331 235Q249 102 183 46T43 -11Q-3 -11 -27 7T-51 54Q-51 77 -36 95T6 120Q6 80
17 67T55 53Q105 53 152 92T272 236Q249 238 240 244T230 262Q230 271 235 286T245 306Q261 300 310 293Q366 378 432 486T512 617Q531 648 566 706Q578 724 587 732T612 740Q625 740 643 735Q632 717 627 683T620 610L619 569Q619 517 621 448T627 334Q633 246
641 193T668 104T723 68Q746 68 768 83T808 124Q820 116 820 101ZM493 283T535 285L534 442Q534 526 541 581Q449 434 430 401L363 288Q420 283 465 283Q493 283 535 285ZM705 974T732 903T759 815Q759 803 739 792T702 780Q674 879 650 935Q588 861 548 800Q530
802 517 812T505 836Q506 845 514 857Q551 917 625 991Q638 1004 644 1007T661 1011Q682 1011 691 996Q705 974 732 903Z" />
<glyph unicode="&#xc3;" glyph-name="Atilde" horiz-adv-x="820" d="M820 116T820 101Q820 75 798 50T741 10T673 -6Q621 -6 594 32T560 99T542 202Q539 223 531 229T500 236L331 235Q249 102 183 46T43 -11Q-3 -11 -27 7T-51 54Q-51 77 -36 95T6 120Q6 80 17
67T55 53Q105 53 152 92T272 236Q249 238 240 244T230 262Q230 271 235 286T245 306Q261 300 310 293Q366 378 432 486T512 617Q531 648 566 706Q578 724 587 732T612 740Q625 740 643 735Q632 717 627 683T620 610L619 569Q619 517 621 448T627 334Q633 246 641
193T668 104T723 68Q746 68 768 83T808 124Q820 116 820 101ZM493 283T535 285L534 442Q534 526 541 581Q449 434 430 401L363 288Q420 283 465 283Q493 283 535 285ZM691 807T675 814T634 836Q610 850 597 856T569 862Q533 862 525 819Q488 819 488 854Q488 884
512 906T574 929Q595 929 610 922T646 902Q663 891 676 885T706 879Q726 879 735 890T747 927Q770 927 781 917T792 886Q792 853 769 830T711 807Q691 807 675 814Z" />
<glyph unicode="&#xc4;" glyph-name="Adieresis" horiz-adv-x="820" d="M820 116T820 101Q820 75 798 50T741 10T673 -6Q621 -6 594 32T560 99T542 202Q539 223 531 229T500 236L331 235Q249 102 183 46T43 -11Q-3 -11 -27 7T-51 54Q-51 77 -36 95T6 120Q6 80
17 67T55 53Q105 53 152 92T272 236Q249 238 240 244T230 262Q230 271 235 286T245 306Q261 300 310 293Q366 378 432 486T512 617Q531 648 566 706Q578 724 587 732T612 740Q625 740 643 735Q632 717 627 683T620 610L619 569Q619 517 621 448T627 334Q633 246
641 193T668 104T723 68Q746 68 768 83T808 124Q820 116 820 101ZM493 283T535 285L534 442Q534 526 541 581Q449 434 430 401L363 288Q420 283 465 283Q493 283 535 285ZM704 784T692 798T679 838Q679 868 696 888T744 909Q792 909 792 857Q792 825 774 805T727
784Q704 784 692 798ZM504 783T492 797T479 837Q479 867 497 887T545 908Q593 908 593 856Q593 824 575 804T528 783Q504 783 492 797Z" />
<glyph unicode="&#xc5;" glyph-name="Aring" horiz-adv-x="820" d="M820 116T820 101Q820 75 798 50T741 10T673 -6Q621 -6 594 32T560 99T542 202Q539 223 531 229T500 236L331 235Q249 102 183 46T43 -11Q-3 -11 -27 7T-51 54Q-51 77 -36 95T6 120Q6 80 17 67T55
53Q105 53 152 92T272 236Q249 238 240 244T230 262Q230 271 235 286T245 306Q261 300 310 293Q366 378 432 486T512 617Q531 648 566 706Q578 724 587 732T612 740Q625 740 643 735Q632 717 627 683T620 610L619 569Q619 517 621 448T627 334Q633 246 641 193T668
104T723 68Q746 68 768 83T808 124Q820 116 820 101ZM493 283T535 285L534 442Q534 526 541 581Q449 434 430 401L363 288Q420 283 465 283Q493 283 535 285ZM571 773T547 793T523 849Q523 881 540 907T586 950T650 966Q695 966 718 947T741 892Q741 842 707 808T616
773Q571 773 547 793ZM648 815T660 841T672 897Q672 911 666 917T645 924Q621 924 608 902T595 848Q595 815 624 815Q648 815 660 841Z" />
<glyph unicode="&#xc6;" glyph-name="AE" horiz-adv-x="1165" d="M1177 704T1175 694Q1174 687 1160 651T1136 591L1123 592Q1124 609 1120 616T1104 624Q822 646 780 646Q766 646 762 643T755 627L735 510Q729 476 723 441T710 369Q995 371 1042 385L1048 380Q1018
353 1012 320Q1008 313 1003 311T982 309L700 314Q666 113 666 85Q666 60 689 49T764 37Q846 37 941 61T1102 136Q1105 136 1108 134T1112 128Q1102 119 1085 70Q1076 44 1075 43Q1069 29 1059 23T1029 12Q977 0 902 -6T763 -13Q558 -13 569 63Q578 141 609 315L429
318L364 319Q249 210 164 119T50 -22Q38 -42 35 -59T32 -99Q28 -105 23 -108T16 -109Q-11 -100 -41 -73T-72 -31Q-72 -16 -56 3T0 60Q323 372 474 514T687 697Q703 708 714 712T738 716Q748 705 759 702T791 699L949 701Q1074 704 1166 704Q1177 704 1175 694ZM495
369T619 369L625 403L631 436Q637 476 657 584Q537 481 420 372Q495 369 619 369Z" />
<glyph unicode="&#xc7;" glyph-name="Ccedilla" horiz-adv-x="760" d="M654 480Q657 521 645 557Q630 604 590 634T481 664Q386 664 314 607T203 459T164 268Q164 153 216 97T361 41Q464 41 533 105T631 265Q655 265 665 254T675 217Q675 162 632 108T514 18T347
-17H336Q316 -33 316 -48Q316 -56 321 -61T339 -73Q357 -84 366 -94T376 -125Q376 -152 358 -177T309 -219T246 -235Q212 -235 212 -212Q291 -192 291 -143Q291 -131 287 -123T274 -106Q266 -96 263 -90T259 -72Q259 -44 290 -13Q186 3 126 73T66 266Q66 383 121
487T273 653T490 716Q568 716 633 691T722 629Q695 590 687 484L654 480Z" />
<glyph unicode="&#xc8;" glyph-name="Egrave" horiz-adv-x="712" d="M680 702T685 698T694 687Q664 611 662 593L652 591Q648 607 642 615T620 626Q431 651 352 651Q330 651 324 648T313 634Q296 592 252 405H356Q462 405 508 408T590 423L595 418Q587 396 585
383T581 362Q578 350 574 347T558 344Q476 344 240 348Q200 161 200 106Q200 69 222 58T304 46Q399 46 491 66T638 138Q645 136 645 133Q639 123 637 116T631 92Q624 55 614 38T579 15Q502 0 441 -6T306 -13Q232 -13 190 -5T127 27T106 95Q106 161 151 349H137Q124
349 126 357Q127 366 139 385T159 405H164Q187 502 197 553T208 628Q208 642 202 645T176 649Q125 649 73 633L70 634Q71 648 76 674T87 708Q181 701 277 701L674 702Q680 702 685 698ZM467 746T457 755Q437 771 390 826T322 913Q332 933 350 950T382 967Q388 967
391 960Q425 894 447 854T505 759Q495 746 479 746Q467 746 457 755Z" />
<glyph unicode="&#xc9;" glyph-name="Eacute" horiz-adv-x="712" d="M680 702T685 698T694 687Q664 611 662 593L652 591Q648 607 642 615T620 626Q431 651 352 651Q330 651 324 648T313 634Q296 592 252 405H356Q462 405 508 408T590 423L595 418Q587 396 585
383T581 362Q578 350 574 347T558 344Q476 344 240 348Q200 161 200 106Q200 69 222 58T304 46Q399 46 491 66T638 138Q645 136 645 133Q639 123 637 116T631 92Q624 55 614 38T579 15Q502 0 441 -6T306 -13Q232 -13 190 -5T127 27T106 95Q106 161 151 349H137Q124
349 126 357Q127 366 139 385T159 405H164Q187 502 197 553T208 628Q208 642 202 645T176 649Q125 649 73 633L70 634Q71 648 76 674T87 708Q181 701 277 701L674 702Q680 702 685 698ZM486 753T476 753Q464 753 454 765Q513 835 542 873T611 969Q618 979 627 979Q641
979 668 965T696 940Q696 934 682 921Q644 887 585 836T493 759Q486 753 476 753Z" />
<glyph unicode="&#xca;" glyph-name="Ecircumflex" horiz-adv-x="712" d="M680 702T685 698T694 687Q664 611 662 593L652 591Q648 607 642 615T620 626Q431 651 352 651Q330 651 324 648T313 634Q296 592 252 405H356Q462 405 508 408T590 423L595 418Q587 396
585 383T581 362Q578 350 574 347T558 344Q476 344 240 348Q200 161 200 106Q200 69 222 58T304 46Q399 46 491 66T638 138Q645 136 645 133Q639 123 637 116T631 92Q624 55 614 38T579 15Q502 0 441 -6T306 -13Q232 -13 190 -5T127 27T106 95Q106 161 151 349H137Q124
349 126 357Q127 366 139 385T159 405H164Q187 502 197 553T208 628Q208 642 202 645T176 649Q125 649 73 633L70 634Q71 648 76 674T87 708Q181 701 277 701L674 702Q680 702 685 698ZM561 954T588 883T615 795Q615 783 595 772T558 760Q530 859 506 915Q444 841
404 780Q386 782 373 792T361 816Q362 825 370 837Q407 897 481 971Q494 984 500 987T517 991Q538 991 547 976Q561 954 588 883Z" />
<glyph unicode="&#xcb;" glyph-name="Edieresis" horiz-adv-x="712" d="M680 702T685 698T694 687Q664 611 662 593L652 591Q648 607 642 615T620 626Q431 651 352 651Q330 651 324 648T313 634Q296 592 252 405H356Q462 405 508 408T590 423L595 418Q587 396
585 383T581 362Q578 350 574 347T558 344Q476 344 240 348Q200 161 200 106Q200 69 222 58T304 46Q399 46 491 66T638 138Q645 136 645 133Q639 123 637 116T631 92Q624 55 614 38T579 15Q502 0 441 -6T306 -13Q232 -13 190 -5T127 27T106 95Q106 161 151 349H137Q124
349 126 357Q127 366 139 385T159 405H164Q187 502 197 553T208 628Q208 642 202 645T176 649Q125 649 73 633L70 634Q71 648 76 674T87 708Q181 701 277 701L674 702Q680 702 685 698ZM560 764T548 778T535 818Q535 848 552 868T600 889Q648 889 648 837Q648 805
630 785T583 764Q560 764 548 778ZM360 763T348 777T335 817Q335 847 353 867T401 888Q449 888 449 836Q449 804 431 784T384 763Q360 763 348 777Z" />
<glyph unicode="&#xcc;" glyph-name="Igrave" horiz-adv-x="394" d="M61 8Q78 15 87 22T99 41Q125 138 174 355T229 611Q230 615 230 621Q230 636 220 641T185 647Q132 647 97 640Q97 661 103 677T122 693Q239 694 277 696T372 704Q377 702 378 688T378 664Q345
660 334 655T319 633Q311 602 240 254Q200 57 196 40Q190 14 159 5T71 -4L61 8ZM260 746T250 755Q230 771 183 826T115 913Q125 933 143 950T175 967Q181 967 184 960Q218 894 240 854T298 759Q288 746 272 746Q260 746 250 755Z" />
<glyph unicode="&#xcd;" glyph-name="Iacute" horiz-adv-x="394" d="M61 8Q78 15 87 22T99 41Q125 138 174 355T229 611Q230 615 230 621Q230 636 220 641T185 647Q132 647 97 640Q97 661 103 677T122 693Q239 694 277 696T372 704Q377 702 378 688T378 664Q345
660 334 655T319 633Q311 602 240 254Q200 57 196 40Q190 14 159 5T71 -4L61 8ZM279 753T269 753Q257 753 247 765Q306 835 335 873T404 969Q411 979 420 979Q434 979 461 965T489 940Q489 934 475 921Q437 887 378 836T286 759Q279 753 269 753Z" />
<glyph unicode="&#xce;" glyph-name="Icircumflex" horiz-adv-x="394" d="M61 8Q78 15 87 22T99 41Q125 138 174 355T229 611Q230 615 230 621Q230 636 220 641T185 647Q132 647 97 640Q97 661 103 677T122 693Q239 694 277 696T372 704Q377 702 378 688T378 664Q345
660 334 655T319 633Q311 602 240 254Q200 57 196 40Q190 14 159 5T71 -4L61 8ZM354 954T381 883T408 795Q408 783 388 772T351 760Q323 859 299 915Q237 841 197 780Q179 782 166 792T154 816Q155 825 163 837Q200 897 274 971Q287 984 293 987T310 991Q331 991
340 976Q354 954 381 883Z" />
<glyph unicode="&#xcf;" glyph-name="Idieresis" horiz-adv-x="394" d="M61 8Q78 15 87 22T99 41Q125 138 174 355T229 611Q230 615 230 621Q230 636 220 641T185 647Q132 647 97 640Q97 661 103 677T122 693Q239 694 277 696T372 704Q377 702 378 688T378 664Q345
660 334 655T319 633Q311 602 240 254Q200 57 196 40Q190 14 159 5T71 -4L61 8ZM353 764T341 778T328 818Q328 848 345 868T393 889Q441 889 441 837Q441 805 423 785T376 764Q353 764 341 778ZM153 763T141 777T128 817Q128 847 146 867T194 888Q242 888 242 836Q242
804 224 784T177 763Q153 763 141 777Z" />
<glyph unicode="&#xd0;" glyph-name="Eth" horiz-adv-x="830" d="M600 707T688 634T777 416Q777 310 730 212T584 50T337 -13Q298 -13 222 -5Q164 1 132 3Q119 4 113 6T91 18Q101 32 105 40T114 64Q128 117 169 345H134Q60 345 42 344L54 411L181 409Q219 613
219 633Q219 638 216 641T205 645Q200 645 156 637Q87 624 64 624Q28 624 28 650Q28 661 33 677T44 703Q58 698 73 696T122 694Q188 694 284 701Q386 707 425 707Q600 707 688 634ZM456 40T528 93T639 234T678 422Q678 545 613 602T406 660Q368 660 351 656T329
644T319 619Q303 541 278 408L366 407L433 408L422 343Q376 345 316 345H266L228 150Q226 142 222 119T217 85Q217 77 221 73T235 63Q257 53 290 47T358 40Q456 40 528 93Z" />
<glyph unicode="&#xd1;" glyph-name="Ntilde" horiz-adv-x="780" d="M812 805T840 798T891 781T914 768Q837 768 790 700T713 517T640 176Q612 29 608 8Q598 2 579 -3T543 -8Q457 164 359 356Q331 409 309 454T268 536Q246 439 232 361T199 170Q173 14 169 -11H124Q104
-11 94 -2T83 19Q83 36 105 132T153 335Q177 431 196 516T216 614Q216 622 209 625T186 629L152 628Q126 626 116 626Q100 626 95 630T89 647Q89 671 97 692Q112 685 135 681T181 677Q223 677 269 694Q274 694 279 690T288 678L364 525Q442 367 560 131Q619 433
647 558T709 744T792 805Q812 805 840 798ZM562 757T546 764T505 786Q481 800 468 806T440 812Q404 812 396 769Q359 769 359 804Q359 834 383 856T445 879Q466 879 481 872T517 852Q534 841 547 835T577 829Q597 829 606 840T618 877Q641 877 652 867T663 836Q663
803 640 780T582 757Q562 757 546 764Z" />
<glyph unicode="&#xd2;" glyph-name="Ograve" horiz-adv-x="792" d="M223 -15T145 64T66 293Q66 415 118 512T265 664T478 719Q617 719 695 642T774 417Q774 297 722 198T576 42T362 -15Q223 -15 145 64ZM470 40T536 91T636 226T670 408Q670 539 613 603T458 667Q369
667 303 617T202 481T167 292Q167 166 221 103T376 40Q470 40 536 91ZM461 746T451 755Q431 771 384 826T316 913Q326 933 344 950T376 967Q382 967 385 960Q419 894 441 854T499 759Q489 746 473 746Q461 746 451 755Z" />
<glyph unicode="&#xd3;" glyph-name="Oacute" horiz-adv-x="792" d="M223 -15T145 64T66 293Q66 415 118 512T265 664T478 719Q617 719 695 642T774 417Q774 297 722 198T576 42T362 -15Q223 -15 145 64ZM470 40T536 91T636 226T670 408Q670 539 613 603T458 667Q369
667 303 617T202 481T167 292Q167 166 221 103T376 40Q470 40 536 91ZM480 753T470 753Q458 753 448 765Q507 835 536 873T605 969Q612 979 621 979Q635 979 662 965T690 940Q690 934 676 921Q638 887 579 836T487 759Q480 753 470 753Z" />
<glyph unicode="&#xd4;" glyph-name="Ocircumflex" horiz-adv-x="792" d="M223 -15T145 64T66 293Q66 415 118 512T265 664T478 719Q617 719 695 642T774 417Q774 297 722 198T576 42T362 -15Q223 -15 145 64ZM470 40T536 91T636 226T670 408Q670 539 613 603T458
667Q369 667 303 617T202 481T167 292Q167 166 221 103T376 40Q470 40 536 91ZM555 954T582 883T609 795Q609 783 589 772T552 760Q524 859 500 915Q438 841 398 780Q380 782 367 792T355 816Q356 825 364 837Q401 897 475 971Q488 984 494 987T511 991Q532 991
541 976Q555 954 582 883Z" />
<glyph unicode="&#xd5;" glyph-name="Otilde" horiz-adv-x="792" d="M223 -15T145 64T66 293Q66 415 118 512T265 664T478 719Q617 719 695 642T774 417Q774 297 722 198T576 42T362 -15Q223 -15 145 64ZM470 40T536 91T636 226T670 408Q670 539 613 603T458 667Q369
667 303 617T202 481T167 292Q167 166 221 103T376 40Q470 40 536 91ZM541 787T525 794T484 816Q460 830 447 836T419 842Q383 842 375 799Q338 799 338 834Q338 864 362 886T424 909Q445 909 460 902T496 882Q513 871 526 865T556 859Q576 859 585 870T597 907Q620
907 631 897T642 866Q642 833 619 810T561 787Q541 787 525 794Z" />
<glyph unicode="&#xd6;" glyph-name="Odieresis" horiz-adv-x="792" d="M223 -15T145 64T66 293Q66 415 118 512T265 664T478 719Q617 719 695 642T774 417Q774 297 722 198T576 42T362 -15Q223 -15 145 64ZM470 40T536 91T636 226T670 408Q670 539 613 603T458
667Q369 667 303 617T202 481T167 292Q167 166 221 103T376 40Q470 40 536 91ZM554 764T542 778T529 818Q529 848 546 868T594 889Q642 889 642 837Q642 805 624 785T577 764Q554 764 542 778ZM354 763T342 777T329 817Q329 847 347 867T395 888Q443 888 443 836Q443
804 425 784T378 763Q354 763 342 777Z" />
<glyph unicode="&#xd7;" glyph-name="multiply" horiz-adv-x="476" d="M459 362Q401 321 286 227Q363 125 405 78L339 39Q313 70 243 162L230 180Q172 133 69 44L21 89Q68 124 195 227Q107 344 76 377L144 411Q177 372 251 273L413 410L460 371L459 362Z" />
<glyph unicode="&#xd8;" glyph-name="Oslash" horiz-adv-x="876" d="M774 579T774 417Q774 297 722 198T576 42T362 -15Q261 -15 192 27L104 -84L35 -172Q28 -181 18 -181Q4 -181 -9 -172T-23 -159L148 61Q66 141 66 293Q66 415 118 512T265 664T478 719Q568 719
634 686L785 881Q793 891 803 891Q815 891 829 883T843 871L679 657Q774 579 774 417ZM167 192T202 130L588 627Q536 667 458 667Q369 667 303 617T202 481T167 292Q167 192 202 130ZM470 40T536 91T636 226T670 408Q670 522 625 587Q403 297 238 86Q288 40 376
40Q470 40 536 91Z" />
<glyph unicode="&#xd9;" glyph-name="Ugrave" horiz-adv-x="836" d="M899 104T899 92Q899 66 869 43T792 5T703 -9Q635 -9 597 28T558 135V143Q513 72 445 32T304 -8Q250 -8 209 15T145 79T122 171Q122 214 136 280T176 450Q194 520 203 562T213 625Q213 637 209
642T192 647Q177 647 151 640Q113 631 97 631Q76 631 68 638T60 660Q60 670 63 684T68 702Q82 693 112 693Q141 693 188 698Q238 702 252 702Q283 702 296 690T310 652Q310 609 269 445Q243 334 231 272T218 170Q218 120 243 88T321 55Q374 55 427 88T519 180T573
308Q595 417 607 467T646 611Q659 656 666 675T681 701T704 709Q721 709 750 706T791 700Q779 691 772 680T754 641Q709 522 665 287Q658 247 655 221T651 168Q651 110 671 80T751 49Q796 49 831 66T890 109Q899 104 899 92ZM451 726T441 735Q421 751 374 806T306
893Q316 913 334 930T366 947Q372 947 375 940Q409 874 431 834T489 739Q479 726 463 726Q451 726 441 735Z" />
<glyph unicode="&#xda;" glyph-name="Uacute" horiz-adv-x="836" d="M899 104T899 92Q899 66 869 43T792 5T703 -9Q635 -9 597 28T558 135V143Q513 72 445 32T304 -8Q250 -8 209 15T145 79T122 171Q122 214 136 280T176 450Q194 520 203 562T213 625Q213 637 209
642T192 647Q177 647 151 640Q113 631 97 631Q76 631 68 638T60 660Q60 670 63 684T68 702Q82 693 112 693Q141 693 188 698Q238 702 252 702Q283 702 296 690T310 652Q310 609 269 445Q243 334 231 272T218 170Q218 120 243 88T321 55Q374 55 427 88T519 180T573
308Q595 417 607 467T646 611Q659 656 666 675T681 701T704 709Q721 709 750 706T791 700Q779 691 772 680T754 641Q709 522 665 287Q658 247 655 221T651 168Q651 110 671 80T751 49Q796 49 831 66T890 109Q899 104 899 92ZM470 733T460 733Q448 733 438 745Q497
815 526 853T595 949Q602 959 611 959Q625 959 652 945T680 920Q680 914 666 901Q628 867 569 816T477 739Q470 733 460 733Z" />
<glyph unicode="&#xdb;" glyph-name="Ucircumflex" horiz-adv-x="836" d="M899 104T899 92Q899 66 869 43T792 5T703 -9Q635 -9 597 28T558 135V143Q513 72 445 32T304 -8Q250 -8 209 15T145 79T122 171Q122 214 136 280T176 450Q194 520 203 562T213 625Q213
637 209 642T192 647Q177 647 151 640Q113 631 97 631Q76 631 68 638T60 660Q60 670 63 684T68 702Q82 693 112 693Q141 693 188 698Q238 702 252 702Q283 702 296 690T310 652Q310 609 269 445Q243 334 231 272T218 170Q218 120 243 88T321 55Q374 55 427 88T519
180T573 308Q595 417 607 467T646 611Q659 656 666 675T681 701T704 709Q721 709 750 706T791 700Q779 691 772 680T754 641Q709 522 665 287Q658 247 655 221T651 168Q651 110 671 80T751 49Q796 49 831 66T890 109Q899 104 899 92ZM545 934T572 863T599 775Q599
763 579 752T542 740Q514 839 490 895Q428 821 388 760Q370 762 357 772T345 796Q346 805 354 817Q391 877 465 951Q478 964 484 967T501 971Q522 971 531 956Q545 934 572 863Z" />
<glyph unicode="&#xdc;" glyph-name="Udieresis" horiz-adv-x="836" d="M899 104T899 92Q899 66 869 43T792 5T703 -9Q635 -9 597 28T558 135V143Q513 72 445 32T304 -8Q250 -8 209 15T145 79T122 171Q122 214 136 280T176 450Q194 520 203 562T213 625Q213 637
209 642T192 647Q177 647 151 640Q113 631 97 631Q76 631 68 638T60 660Q60 670 63 684T68 702Q82 693 112 693Q141 693 188 698Q238 702 252 702Q283 702 296 690T310 652Q310 609 269 445Q243 334 231 272T218 170Q218 120 243 88T321 55Q374 55 427 88T519 180T573
308Q595 417 607 467T646 611Q659 656 666 675T681 701T704 709Q721 709 750 706T791 700Q779 691 772 680T754 641Q709 522 665 287Q658 247 655 221T651 168Q651 110 671 80T751 49Q796 49 831 66T890 109Q899 104 899 92ZM544 744T532 758T519 798Q519 828 536
848T584 869Q632 869 632 817Q632 785 614 765T567 744Q544 744 532 758ZM344 743T332 757T319 797Q319 827 337 847T385 868Q433 868 433 816Q433 784 415 764T368 743Q344 743 332 757Z" />
<glyph unicode="&#xdd;" glyph-name="Yacute" horiz-adv-x="700" d="M910 754T910 700Q910 687 906 676T897 658Q879 665 842 665Q734 665 637 592T471 399T378 147Q373 117 365 49L361 18Q359 7 355 4T342 0Q308 0 281 -2T235 -13Q230 -6 230 -2Q270 64 291 171T313
370Q313 484 276 550T160 617Q112 617 83 593T20 518Q9 522 3 532T-3 556Q-3 583 19 619T83 682T180 709Q276 709 327 625T378 395Q378 377 376 341Q422 447 499 542T666 696T836 754Q910 754 910 700ZM466 723T456 723Q444 723 434 735Q493 805 522 843T591 939Q598
949 607 949Q621 949 648 935T676 910Q676 904 662 891Q624 857 565 806T473 729Q466 723 456 723Z" />
<glyph unicode="&#xde;" glyph-name="Thorn" horiz-adv-x="645" d="M499 556T554 515T609 392Q609 324 572 270T470 185T329 154Q278 154 226 169Q225 174 222 192T213 221Q218 226 222 228Q236 218 266 210T327 201Q379 201 420 226T486 295T510 391Q510 451
478 482T387 513Q338 513 292 495T235 446Q231 435 223 398T208 325Q194 249 181 151T168 26Q168 10 175 -8Q170 -8 152 -10T112 -12Q85 -12 77 -6T68 20Q68 38 75 76Q77 87 97 182Q130 336 149 449L153 472Q163 533 169 574T175 629Q175 646 169 651T145 656L68
654Q65 662 64 676T62 700L102 699Q140 697 160 697Q179 697 213 699L260 700Q278 700 281 684L274 656Q263 614 252 548L248 526Q320 556 402 556Q499 556 554 515Z" />
<glyph unicode="&#xdf;" glyph-name="germandbls" horiz-adv-x="472" d="M532 565T509 535T440 459Q401 420 384 399T366 359Q366 344 377 328T415 283Q449 246 467 219T485 162Q485 127 456 88T364 20T207 -8Q182 -8 169 -7Q136 -154 61 -283T-116 -492T-323
-571Q-388 -571 -417 -543T-446 -474Q-446 -461 -442 -441Q-412 -464 -377 -475T-291 -487Q-183 -487 -114 -436T-1 -283T82 -13L86 7Q42 19 15 44T-12 108Q-12 147 14 176T82 205Q72 187 66 167T60 133Q60 97 101 73Q104 87 138 257Q185 489 206 585Q215 624 246
653T315 698T382 714Q413 714 448 696T508 649T532 593Q532 565 509 535ZM387 182T376 203T343 255Q323 280 313 299T303 339Q303 366 319 391T368 454Q401 489 418 516T435 571Q435 604 412 631T356 659Q335 659 321 642T294 577Q276 508 181 49Q207 47 223 47Q303
47 345 77T387 156Q387 182 376 203Z" />
<glyph unicode="&#xe0;" glyph-name="agrave" horiz-adv-x="520" d="M649 241T649 211Q649 163 611 111T515 23T410 -12Q372 -12 344 10T303 67Q276 33 238 13T170 -8Q144 -8 118 7T74 47T55 95Q78 197 96 293Q100 313 130 343T202 396T282 418Q317 418 353 397Q360
414 364 418T376 424L463 429L466 427Q454 417 448 405T437 377Q419 316 400 230T381 110Q381 82 394 59T437 36Q467 36 506 62T580 135T631 241Q649 241 649 211ZM216 52T236 66T273 104T298 157L314 232Q332 324 339 353Q313 365 284 365Q237 365 214 336T182
269L151 118Q153 93 169 73T202 52Q216 52 236 66ZM311 486T301 495Q281 511 234 566T166 653Q176 673 194 690T226 707Q232 707 235 700Q269 634 291 594T349 499Q339 486 323 486Q311 486 301 495Z" />
<glyph unicode="&#xe1;" glyph-name="aacute" horiz-adv-x="520" d="M649 241T649 211Q649 163 611 111T515 23T410 -12Q372 -12 344 10T303 67Q276 33 238 13T170 -8Q144 -8 118 7T74 47T55 95Q78 197 96 293Q100 313 130 343T202 396T282 418Q317 418 353 397Q360
414 364 418T376 424L463 429L466 427Q454 417 448 405T437 377Q419 316 400 230T381 110Q381 82 394 59T437 36Q467 36 506 62T580 135T631 241Q649 241 649 211ZM216 52T236 66T273 104T298 157L314 232Q332 324 339 353Q313 365 284 365Q237 365 214 336T182
269L151 118Q153 93 169 73T202 52Q216 52 236 66ZM330 493T320 493Q308 493 298 505Q357 575 386 613T455 709Q462 719 471 719Q485 719 512 705T540 680Q540 674 526 661Q488 627 429 576T337 499Q330 493 320 493Z" />
<glyph unicode="&#xe2;" glyph-name="acircumflex" horiz-adv-x="520" d="M649 241T649 211Q649 163 611 111T515 23T410 -12Q372 -12 344 10T303 67Q276 33 238 13T170 -8Q144 -8 118 7T74 47T55 95Q78 197 96 293Q100 313 130 343T202 396T282 418Q317 418 353
397Q360 414 364 418T376 424L463 429L466 427Q454 417 448 405T437 377Q419 316 400 230T381 110Q381 82 394 59T437 36Q467 36 506 62T580 135T631 241Q649 241 649 211ZM216 52T236 66T273 104T298 157L314 232Q332 324 339 353Q313 365 284 365Q237 365 214
336T182 269L151 118Q153 93 169 73T202 52Q216 52 236 66ZM405 694T432 623T459 535Q459 523 439 512T402 500Q374 599 350 655Q288 581 248 520Q230 522 217 532T205 556Q206 565 214 577Q251 637 325 711Q338 724 344 727T361 731Q382 731 391 716Q405 694 432
623Z" />
<glyph unicode="&#xe3;" glyph-name="atilde" horiz-adv-x="520" d="M649 241T649 211Q649 163 611 111T515 23T410 -12Q372 -12 344 10T303 67Q276 33 238 13T170 -8Q144 -8 118 7T74 47T55 95Q78 197 96 293Q100 313 130 343T202 396T282 418Q317 418 353 397Q360
414 364 418T376 424L463 429L466 427Q454 417 448 405T437 377Q419 316 400 230T381 110Q381 82 394 59T437 36Q467 36 506 62T580 135T631 241Q649 241 649 211ZM216 52T236 66T273 104T298 157L314 232Q332 324 339 353Q313 365 284 365Q237 365 214 336T182
269L151 118Q153 93 169 73T202 52Q216 52 236 66ZM391 527T375 534T334 556Q310 570 297 576T269 582Q233 582 225 539Q188 539 188 574Q188 604 212 626T274 649Q295 649 310 642T346 622Q363 611 376 605T406 599Q426 599 435 610T447 647Q470 647 481 637T492
606Q492 573 469 550T411 527Q391 527 375 534Z" />
<glyph unicode="&#xe4;" glyph-name="adieresis" horiz-adv-x="520" d="M649 241T649 211Q649 163 611 111T515 23T410 -12Q372 -12 344 10T303 67Q276 33 238 13T170 -8Q144 -8 118 7T74 47T55 95Q78 197 96 293Q100 313 130 343T202 396T282 418Q317 418 353
397Q360 414 364 418T376 424L463 429L466 427Q454 417 448 405T437 377Q419 316 400 230T381 110Q381 82 394 59T437 36Q467 36 506 62T580 135T631 241Q649 241 649 211ZM216 52T236 66T273 104T298 157L314 232Q332 324 339 353Q313 365 284 365Q237 365 214
336T182 269L151 118Q153 93 169 73T202 52Q216 52 236 66ZM404 504T392 518T379 558Q379 588 396 608T444 629Q492 629 492 577Q492 545 474 525T427 504Q404 504 392 518ZM204 503T192 517T179 557Q179 587 197 607T245 628Q293 628 293 576Q293 544 275 524T228
503Q204 503 192 517Z" />
<glyph unicode="&#xe5;" glyph-name="aring" horiz-adv-x="520" d="M649 241T649 211Q649 163 611 111T515 23T410 -12Q372 -12 344 10T303 67Q276 33 238 13T170 -8Q144 -8 118 7T74 47T55 95Q78 197 96 293Q100 313 130 343T202 396T282 418Q317 418 353 397Q360
414 364 418T376 424L463 429L466 427Q454 417 448 405T437 377Q419 316 400 230T381 110Q381 82 394 59T437 36Q467 36 506 62T580 135T631 241Q649 241 649 211ZM216 52T236 66T273 104T298 157L314 232Q332 324 339 353Q313 365 284 365Q237 365 214 336T182
269L151 118Q153 93 169 73T202 52Q216 52 236 66ZM271 493T247 513T223 569Q223 601 240 627T286 670T350 686Q395 686 418 667T441 612Q441 562 407 528T316 493Q271 493 247 513ZM348 535T360 561T372 617Q372 631 366 637T345 644Q321 644 308 622T295 568Q295
535 324 535Q348 535 360 561Z" />
<glyph unicode="&#xe6;" glyph-name="ae" horiz-adv-x="655" d="M776 227T780 222T784 208Q784 197 780 186Q766 144 709 98T580 20T449 -12Q401 -12 363 12T309 75Q282 39 242 16T170 -8Q144 -8 118 7T74 47T55 95Q66 143 78 217L91 293Q95 313 125 343T197 396T277
418Q312 418 348 397Q355 414 359 418T371 424L453 429L456 427Q443 416 430 378Q454 398 479 409T525 420Q546 420 571 409T615 377T634 325Q634 284 598 251T504 199T389 180Q382 142 381 128Q384 97 408 71T486 45Q536 45 591 69T692 136T766 229Q776 227 780
222ZM487 373T467 361T430 332T411 301L397 225Q464 227 505 251T547 320Q547 346 534 359T503 373Q487 373 467 361ZM216 52T236 66T273 104T298 157L313 238Q327 318 334 353Q310 365 279 365Q200 365 177 269Q173 255 162 187Q158 157 151 118Q153 93 169 73T202
52Q216 52 236 66Z" />
<glyph unicode="&#xe7;" glyph-name="ccedilla" horiz-adv-x="392" d="M521 232T521 204Q521 156 472 108T352 27T229 -5Q210 -5 195 -1Q177 -10 164 -23T150 -48Q150 -56 155 -61T173 -73Q191 -84 200 -94T210 -125Q210 -152 192 -177T143 -219T80 -235Q46 -235
46 -212Q125 -192 125 -143Q125 -131 121 -123T108 -106Q100 -96 97 -90T93 -72Q93 -48 112 -26T157 12Q130 24 108 43T74 81T62 112Q82 187 91 230T111 327Q114 346 142 369T208 408T279 425Q318 425 355 406T392 350Q392 307 334 286L330 287Q328 323 310 352T268
382Q246 382 222 358T193 312Q177 226 155 121Q160 88 180 69T253 50Q318 50 388 87T501 232Q521 232 521 204Z" />
<glyph unicode="&#xe8;" glyph-name="egrave" horiz-adv-x="418" d="M547 221T547 206Q547 161 495 112T365 29T221 -5Q167 -5 129 17T72 66T52 107Q59 133 65 169T75 219Q78 237 82 261T94 318Q98 338 129 362T199 403T265 420Q287 420 317 408T370 375T392 324Q392
287 356 252T263 195T153 170L145 128Q148 97 174 75T252 52Q302 52 356 75T457 138T530 229Q547 221 547 206ZM231 378T208 354T178 306L161 215Q221 219 263 250T305 323Q305 348 291 363T256 378Q231 378 208 354ZM269 486T259 495Q239 511 192 566T124 653Q134
673 152 690T184 707Q190 707 193 700Q227 634 249 594T307 499Q297 486 281 486Q269 486 259 495Z" />
<glyph unicode="&#xe9;" glyph-name="eacute" horiz-adv-x="418" d="M547 221T547 206Q547 161 495 112T365 29T221 -5Q167 -5 129 17T72 66T52 107Q59 133 65 169T75 219Q78 237 82 261T94 318Q98 338 129 362T199 403T265 420Q287 420 317 408T370 375T392 324Q392
287 356 252T263 195T153 170L145 128Q148 97 174 75T252 52Q302 52 356 75T457 138T530 229Q547 221 547 206ZM231 378T208 354T178 306L161 215Q221 219 263 250T305 323Q305 348 291 363T256 378Q231 378 208 354ZM288 493T278 493Q266 493 256 505Q315 575
344 613T413 709Q420 719 429 719Q443 719 470 705T498 680Q498 674 484 661Q446 627 387 576T295 499Q288 493 278 493Z" />
<glyph unicode="&#xea;" glyph-name="ecircumflex" horiz-adv-x="418" d="M547 221T547 206Q547 161 495 112T365 29T221 -5Q167 -5 129 17T72 66T52 107Q59 133 65 169T75 219Q78 237 82 261T94 318Q98 338 129 362T199 403T265 420Q287 420 317 408T370 375T392
324Q392 287 356 252T263 195T153 170L145 128Q148 97 174 75T252 52Q302 52 356 75T457 138T530 229Q547 221 547 206ZM231 378T208 354T178 306L161 215Q221 219 263 250T305 323Q305 348 291 363T256 378Q231 378 208 354ZM363 694T390 623T417 535Q417 523
397 512T360 500Q332 599 308 655Q246 581 206 520Q188 522 175 532T163 556Q164 565 172 577Q209 637 283 711Q296 724 302 727T319 731Q340 731 349 716Q363 694 390 623Z" />
<glyph unicode="&#xeb;" glyph-name="edieresis" horiz-adv-x="418" d="M547 221T547 206Q547 161 495 112T365 29T221 -5Q167 -5 129 17T72 66T52 107Q59 133 65 169T75 219Q78 237 82 261T94 318Q98 338 129 362T199 403T265 420Q287 420 317 408T370 375T392
324Q392 287 356 252T263 195T153 170L145 128Q148 97 174 75T252 52Q302 52 356 75T457 138T530 229Q547 221 547 206ZM231 378T208 354T178 306L161 215Q221 219 263 250T305 323Q305 348 291 363T256 378Q231 378 208 354ZM362 504T350 518T337 558Q337 588
354 608T402 629Q450 629 450 577Q450 545 432 525T385 504Q362 504 350 518ZM162 503T150 517T137 557Q137 587 155 607T203 628Q251 628 251 576Q251 544 233 524T186 503Q162 503 150 517Z" />
<glyph unicode="&#xec;" glyph-name="igrave" horiz-adv-x="312" d="M122 -7T95 17T68 96Q68 109 69 116L101 268Q121 370 127 393Q132 405 146 412T178 420Q194 420 204 414T216 399Q195 306 159 124Q158 116 158 103Q158 75 170 63T205 51Q245 51 291 79T376
150T438 235Q453 229 453 215Q453 205 449 195T444 181Q425 136 379 92T275 21T168 -7Q122 -7 95 17ZM171 486T161 495Q141 511 94 566T26 653Q36 673 54 690T86 707Q92 707 95 700Q129 634 151 594T209 499Q199 486 183 486Q171 486 161 495Z" />
<glyph unicode="&#xed;" glyph-name="iacute" horiz-adv-x="312" d="M122 -7T95 17T68 96Q68 109 69 116L101 268Q121 370 127 393Q132 405 146 412T178 420Q194 420 204 414T216 399Q195 306 159 124Q158 116 158 103Q158 75 170 63T205 51Q245 51 291 79T376
150T438 235Q453 229 453 215Q453 205 449 195T444 181Q425 136 379 92T275 21T168 -7Q122 -7 95 17ZM190 493T180 493Q168 493 158 505Q217 575 246 613T315 709Q322 719 331 719Q345 719 372 705T400 680Q400 674 386 661Q348 627 289 576T197 499Q190 493 180
493Z" />
<glyph unicode="&#xee;" glyph-name="icircumflex" horiz-adv-x="312" d="M122 -7T95 17T68 96Q68 109 69 116L101 268Q121 370 127 393Q132 405 146 412T178 420Q194 420 204 414T216 399Q195 306 159 124Q158 116 158 103Q158 75 170 63T205 51Q245 51 291 79T376
150T438 235Q453 229 453 215Q453 205 449 195T444 181Q425 136 379 92T275 21T168 -7Q122 -7 95 17ZM265 694T292 623T319 535Q319 523 299 512T262 500Q234 599 210 655Q148 581 108 520Q90 522 77 532T65 556Q66 565 74 577Q111 637 185 711Q198 724 204 727T221
731Q242 731 251 716Q265 694 292 623Z" />
<glyph unicode="&#xef;" glyph-name="idieresis" horiz-adv-x="312" d="M122 -7T95 17T68 96Q68 109 69 116L101 268Q121 370 127 393Q132 405 146 412T178 420Q194 420 204 414T216 399Q195 306 159 124Q158 116 158 103Q158 75 170 63T205 51Q245 51 291 79T376
150T438 235Q453 229 453 215Q453 205 449 195T444 181Q425 136 379 92T275 21T168 -7Q122 -7 95 17ZM264 504T252 518T239 558Q239 588 256 608T304 629Q352 629 352 577Q352 545 334 525T287 504Q264 504 252 518ZM64 503T52 517T39 557Q39 587 57 607T105 628Q153
628 153 576Q153 544 135 524T88 503Q64 503 52 517Z" />
<glyph unicode="&#xf0;" glyph-name="eth" horiz-adv-x="475" d="M506 729T521 708T539 682Q539 676 535 676Q473 670 402 651Q447 526 447 403Q447 299 416 204T324 50T179 -10Q114 -10 78 27T41 135Q41 212 83 274T199 375T361 419Q359 532 321 627Q319 627
313 625Q261 609 237 599T190 576Q185 584 168 606T144 632L148 636Q180 636 292 670Q298 672 300 672Q246 776 153 844T-60 932Q-30 959 -3 971T58 983Q150 983 238 904T383 699L410 708Q424 712 452 721T504 736Q506 729 521 708ZM247 42T281 91T335 216T360
369Q294 362 244 330T166 246T138 133Q138 42 200 42Q247 42 281 91Z" />
<glyph unicode="&#xf1;" glyph-name="ntilde" horiz-adv-x="500" d="M619 224T624 218T629 201Q629 174 596 122T506 29T382 -12Q330 -12 302 13T273 81Q273 106 282 143T309 236Q325 288 335 329Q334 335 327 335Q313 335 273 299T194 218T146 151Q128 70 124
44T119 14Q118 11 117 7T115 1T110 0Q95 0 63 2T31 8Q37 44 62 158Q67 186 67 185L112 405Q113 412 116 413T131 415Q178 415 199 400Q198 396 188 351T159 235Q215 303 274 358T354 413Q365 413 398 402T434 384L416 316Q390 223 377 168T364 84Q364 38 407 38Q442
38 483 65T559 136T610 224Q619 224 624 218ZM363 527T347 534T306 556Q282 570 269 576T241 582Q205 582 197 539Q160 539 160 574Q160 604 184 626T246 649Q267 649 282 642T318 622Q335 611 348 605T378 599Q398 599 407 610T419 647Q442 647 453 637T464 606Q464
573 441 550T383 527Q363 527 347 534Z" />
<glyph unicode="&#xf2;" glyph-name="ograve" horiz-adv-x="500" d="M661 358T661 342Q661 314 634 289T564 247T474 231Q438 231 400 242Q399 235 397 227T393 206Q390 190 382 147T371 86Q363 69 337 47T276 8T207 -8Q174 -8 140 8T84 51T61 111Q75 165 82 200T99
300Q103 324 131 351T201 397T283 415H296Q299 433 310 441T343 450Q376 450 385 437Q375 395 375 377Q375 332 407 306T498 280Q547 280 588 300T648 363Q661 358 661 342ZM237 46T258 60T286 93Q296 147 305 185Q308 199 314 230T325 286Q300 311 294 346Q294
350 293 353T288 357Q282 359 271 359Q237 359 215 340T187 289Q166 191 149 114Q150 83 172 65T217 46Q237 46 258 60ZM298 486T288 495Q268 511 221 566T153 653Q163 673 181 690T213 707Q219 707 222 700Q256 634 278 594T336 499Q326 486 310 486Q298 486 288
495Z" />
<glyph unicode="&#xf3;" glyph-name="oacute" horiz-adv-x="500" d="M661 358T661 342Q661 314 634 289T564 247T474 231Q438 231 400 242Q399 235 397 227T393 206Q390 190 382 147T371 86Q363 69 337 47T276 8T207 -8Q174 -8 140 8T84 51T61 111Q75 165 82 200T99
300Q103 324 131 351T201 397T283 415H296Q299 433 310 441T343 450Q376 450 385 437Q375 395 375 377Q375 332 407 306T498 280Q547 280 588 300T648 363Q661 358 661 342ZM237 46T258 60T286 93Q296 147 305 185Q308 199 314 230T325 286Q300 311 294 346Q294
350 293 353T288 357Q282 359 271 359Q237 359 215 340T187 289Q166 191 149 114Q150 83 172 65T217 46Q237 46 258 60ZM317 493T307 493Q295 493 285 505Q344 575 373 613T442 709Q449 719 458 719Q472 719 499 705T527 680Q527 674 513 661Q475 627 416 576T324
499Q317 493 307 493Z" />
<glyph unicode="&#xf4;" glyph-name="ocircumflex" horiz-adv-x="500" d="M661 358T661 342Q661 314 634 289T564 247T474 231Q438 231 400 242Q399 235 397 227T393 206Q390 190 382 147T371 86Q363 69 337 47T276 8T207 -8Q174 -8 140 8T84 51T61 111Q75 165
82 200T99 300Q103 324 131 351T201 397T283 415H296Q299 433 310 441T343 450Q376 450 385 437Q375 395 375 377Q375 332 407 306T498 280Q547 280 588 300T648 363Q661 358 661 342ZM237 46T258 60T286 93Q296 147 305 185Q308 199 314 230T325 286Q300 311 294
346Q294 350 293 353T288 357Q282 359 271 359Q237 359 215 340T187 289Q166 191 149 114Q150 83 172 65T217 46Q237 46 258 60ZM392 694T419 623T446 535Q446 523 426 512T389 500Q361 599 337 655Q275 581 235 520Q217 522 204 532T192 556Q193 565 201 577Q238
637 312 711Q325 724 331 727T348 731Q369 731 378 716Q392 694 419 623Z" />
<glyph unicode="&#xf5;" glyph-name="otilde" horiz-adv-x="500" d="M661 358T661 342Q661 314 634 289T564 247T474 231Q438 231 400 242Q399 235 397 227T393 206Q390 190 382 147T371 86Q363 69 337 47T276 8T207 -8Q174 -8 140 8T84 51T61 111Q75 165 82 200T99
300Q103 324 131 351T201 397T283 415H296Q299 433 310 441T343 450Q376 450 385 437Q375 395 375 377Q375 332 407 306T498 280Q547 280 588 300T648 363Q661 358 661 342ZM237 46T258 60T286 93Q296 147 305 185Q308 199 314 230T325 286Q300 311 294 346Q294
350 293 353T288 357Q282 359 271 359Q237 359 215 340T187 289Q166 191 149 114Q150 83 172 65T217 46Q237 46 258 60ZM378 527T362 534T321 556Q297 570 284 576T256 582Q220 582 212 539Q175 539 175 574Q175 604 199 626T261 649Q282 649 297 642T333 622Q350
611 363 605T393 599Q413 599 422 610T434 647Q457 647 468 637T479 606Q479 573 456 550T398 527Q378 527 362 534Z" />
<glyph unicode="&#xf6;" glyph-name="odieresis" horiz-adv-x="500" d="M661 358T661 342Q661 314 634 289T564 247T474 231Q438 231 400 242Q399 235 397 227T393 206Q390 190 382 147T371 86Q363 69 337 47T276 8T207 -8Q174 -8 140 8T84 51T61 111Q75 165 82
200T99 300Q103 324 131 351T201 397T283 415H296Q299 433 310 441T343 450Q376 450 385 437Q375 395 375 377Q375 332 407 306T498 280Q547 280 588 300T648 363Q661 358 661 342ZM237 46T258 60T286 93Q296 147 305 185Q308 199 314 230T325 286Q300 311 294
346Q294 350 293 353T288 357Q282 359 271 359Q237 359 215 340T187 289Q166 191 149 114Q150 83 172 65T217 46Q237 46 258 60ZM391 504T379 518T366 558Q366 588 383 608T431 629Q479 629 479 577Q479 545 461 525T414 504Q391 504 379 518ZM191 503T179 517T166
557Q166 587 184 607T232 628Q280 628 280 576Q280 544 262 524T215 503Q191 503 179 517Z" />
<glyph unicode="&#xf7;" glyph-name="divide" horiz-adv-x="476" d="M235 325T224 335T213 363Q213 386 229 401T271 417Q309 417 309 379Q309 355 294 340T254 325Q235 325 224 335ZM363 193T134 193Q62 193 44 192L55 253L361 252H435L421 189Q363 193 134 193ZM162
32T162 69Q162 93 178 108T219 124Q257 124 257 86Q257 62 242 47T202 32Q162 32 162 69Z" />
<glyph unicode="&#xf8;" glyph-name="oslash" horiz-adv-x="500" d="M661 358T661 342Q661 314 634 289T564 247T474 231Q438 231 400 242Q399 235 397 227T393 206Q390 190 382 147T371 86Q363 69 337 47T276 8T207 -8Q183 -8 157 1T110 26Q24 -87 -12 -137Q-18
-137 -27 -126T-36 -106Q-19 -82 42 -2L83 52Q61 79 61 111Q75 165 82 200T99 300Q103 324 131 351T201 397T283 415H296Q299 433 310 441T343 450Q370 450 382 440L468 553Q475 553 483 544T495 522L471 491L375 368Q379 326 411 303T498 280Q547 280 588 300T648
363Q661 358 661 342ZM175 235T175 234Q159 158 157 148Q241 257 298 330Q296 334 294 346Q294 350 293 353T288 357Q282 359 271 359Q237 359 215 340T187 289Q175 235 175 234ZM237 46T258 60T286 93Q296 147 305 185Q308 199 314 230T325 286Q325 286 317 294L156
86Q165 67 182 57T217 46Q237 46 258 60Z" />
<glyph unicode="&#xf9;" glyph-name="ugrave" horiz-adv-x="472" d="M614 230T614 216Q614 192 577 137T487 39T380 -5Q340 -5 312 20T283 86Q256 49 221 22T155 -5Q124 -5 90 20T52 72L111 396Q115 415 124 415Q136 415 167 407T199 390Q199 387 190 351Q180
309 163 222T139 97Q141 83 153 72T183 60Q212 60 243 94T296 202Q314 263 342 404Q344 415 353 415Q366 415 394 407T423 388Q394 284 374 200T354 90Q354 71 365 58T399 45Q441 45 495 94T598 234Q614 230 614 216ZM274 486T264 495Q244 511 197 566T129 653Q139
673 157 690T189 707Q195 707 198 700Q232 634 254 594T312 499Q302 486 286 486Q274 486 264 495Z" />
<glyph unicode="&#xfa;" glyph-name="uacute" horiz-adv-x="472" d="M614 230T614 216Q614 192 577 137T487 39T380 -5Q340 -5 312 20T283 86Q256 49 221 22T155 -5Q124 -5 90 20T52 72L111 396Q115 415 124 415Q136 415 167 407T199 390Q199 387 190 351Q180
309 163 222T139 97Q141 83 153 72T183 60Q212 60 243 94T296 202Q314 263 342 404Q344 415 353 415Q366 415 394 407T423 388Q394 284 374 200T354 90Q354 71 365 58T399 45Q441 45 495 94T598 234Q614 230 614 216ZM293 493T283 493Q271 493 261 505Q320 575
349 613T418 709Q425 719 434 719Q448 719 475 705T503 680Q503 674 489 661Q451 627 392 576T300 499Q293 493 283 493Z" />
<glyph unicode="&#xfb;" glyph-name="ucircumflex" horiz-adv-x="472" d="M614 230T614 216Q614 192 577 137T487 39T380 -5Q340 -5 312 20T283 86Q256 49 221 22T155 -5Q124 -5 90 20T52 72L111 396Q115 415 124 415Q136 415 167 407T199 390Q199 387 190 351Q180
309 163 222T139 97Q141 83 153 72T183 60Q212 60 243 94T296 202Q314 263 342 404Q344 415 353 415Q366 415 394 407T423 388Q394 284 374 200T354 90Q354 71 365 58T399 45Q441 45 495 94T598 234Q614 230 614 216ZM368 694T395 623T422 535Q422 523 402 512T365
500Q337 599 313 655Q251 581 211 520Q193 522 180 532T168 556Q169 565 177 577Q214 637 288 711Q301 724 307 727T324 731Q345 731 354 716Q368 694 395 623Z" />
<glyph unicode="&#xfc;" glyph-name="udieresis" horiz-adv-x="472" d="M614 230T614 216Q614 192 577 137T487 39T380 -5Q340 -5 312 20T283 86Q256 49 221 22T155 -5Q124 -5 90 20T52 72L111 396Q115 415 124 415Q136 415 167 407T199 390Q199 387 190 351Q180
309 163 222T139 97Q141 83 153 72T183 60Q212 60 243 94T296 202Q314 263 342 404Q344 415 353 415Q366 415 394 407T423 388Q394 284 374 200T354 90Q354 71 365 58T399 45Q441 45 495 94T598 234Q614 230 614 216ZM367 504T355 518T342 558Q342 588 359 608T407
629Q455 629 455 577Q455 545 437 525T390 504Q367 504 355 518ZM167 503T155 517T142 557Q142 587 160 607T208 628Q256 628 256 576Q256 544 238 524T191 503Q167 503 155 517Z" />
<glyph unicode="&#xfd;" glyph-name="yacute" horiz-adv-x="474" d="M379 418T411 413T447 395Q431 317 408 214T367 45Q306 -185 188 -349T-141 -513Q-235 -513 -281 -479T-327 -393Q-327 -359 -306 -332Q-276 -370 -221 -395T-93 -420Q-7 -420 60 -377T183 -231T287
50Q257 29 226 15T175 0Q155 0 129 12T85 45T66 87Q70 107 82 178Q100 299 120 388Q126 416 162 416Q174 416 193 415T218 411Q202 338 175 189Q166 133 160 106Q159 84 172 70T202 55Q223 55 254 75T302 117L321 225Q348 372 355 418Q379 418 411 413ZM302 493T292
493Q280 493 270 505Q329 575 358 613T427 709Q434 719 443 719Q457 719 484 705T512 680Q512 674 498 661Q460 627 401 576T309 499Q302 493 292 493Z" />
<glyph unicode="&#xfe;" glyph-name="thorn" horiz-adv-x="519" d="M634 200T638 192T643 173Q643 158 628 135Q584 71 478 33T254 -6Q213 -6 195 0T177 19Q177 25 178 32T181 46Q208 41 221 41Q265 41 290 68T326 135T349 242L361 305Q360 318 337 337T299 356Q286
356 261 342T212 299T178 229Q155 129 140 44T104 -167Q67 -398 33 -567Q28 -593 16 -606T-15 -626T-68 -638Q-120 -647 -154 -657L-165 -652Q-120 -632 -100 -613T-71 -569T-53 -491L-43 -434L153 546Q206 810 303 939T535 1068Q598 1068 635 1043T684 984L685
975Q629 998 572 998Q453 998 366 887T237 547Q213 416 196 340Q221 372 256 396T314 420Q333 420 368 404T432 364T462 322Q459 311 450 260Q440 204 431 169T403 101T353 48Q436 64 505 97T626 205Q634 200 638 192Z" />
<glyph unicode="&#xff;" glyph-name="ydieresis" horiz-adv-x="474" d="M379 418T411 413T447 395Q431 317 408 214T367 45Q306 -185 188 -349T-141 -513Q-235 -513 -281 -479T-327 -393Q-327 -359 -306 -332Q-276 -370 -221 -395T-93 -420Q-7 -420 60 -377T183
-231T287 50Q257 29 226 15T175 0Q155 0 129 12T85 45T66 87Q70 107 82 178Q100 299 120 388Q126 416 162 416Q174 416 193 415T218 411Q202 338 175 189Q166 133 160 106Q159 84 172 70T202 55Q223 55 254 75T302 117L321 225Q348 372 355 418Q379 418 411 413ZM376
504T364 518T351 558Q351 588 368 608T416 629Q464 629 464 577Q464 545 446 525T399 504Q376 504 364 518ZM176 503T164 517T151 557Q151 587 169 607T217 628Q265 628 265 576Q265 544 247 524T200 503Q176 503 164 517Z" />
<glyph unicode="&#x2013;" glyph-name="endash" horiz-adv-x="620" d="M49 259Q98 259 146 258Q338 256 486 256Q568 256 588 257L573 192Q550 194 401 194L117 193Q55 193 37 192L49 259Z" />
<glyph unicode="&#x2014;" glyph-name="emdash" horiz-adv-x="1000" d="M79 259L195 258Q326 258 485 257T793 256Q918 256 938 257L923 192Q900 194 638 194L147 193Q85 193 67 192L79 259Z" />
<glyph unicode="&#x2018;" glyph-name="quoteleft" horiz-adv-x="375" d="M178 396T171 403T159 422Q221 482 252 529T283 615Q283 637 274 652T247 679Q238 685 240 689Q242 696 274 730T315 765Q321 765 333 755T354 725T364 677Q364 620 323 551T218 416Q200
396 187 396Q178 396 171 403Z" />
<glyph unicode="&#x2019;" glyph-name="quoteright" horiz-adv-x="375" d="M318 775T325 768T337 749Q275 689 244 643T213 556Q213 534 222 519T249 492Q258 486 256 482Q254 475 222 441T181 406Q175 406 163 416T142 446T132 494Q132 551 173 620T278 755Q296
775 309 775Q318 775 325 768Z" />
<glyph unicode="&#x201a;" glyph-name="quotesinglbase" horiz-adv-x="375" d="M86 -151T79 -144T67 -125Q129 -65 160 -18T191 68Q191 90 182 105T155 132Q146 138 148 142Q150 149 182 183T223 218Q229 218 241 208T262 178T272 130Q272 73 231 4T126 -131Q108
-151 95 -151Q86 -151 79 -144Z" />
<glyph unicode="&#x201c;" glyph-name="quotedblleft" horiz-adv-x="514" d="M304 774T310 769T324 752Q247 640 247 562Q247 514 280 490Q282 489 286 486T290 480Q289 474 277 455T251 421T228 405Q219 405 202 418T171 457T157 519Q157 575 188 632T269 754Q284
774 296 774Q304 774 310 769ZM457 774T466 767T481 748Q438 691 416 650T395 574Q395 541 409 524T453 491Q455 490 459 487T462 481Q461 477 448 458T420 422T394 405Q383 405 366 421T337 466T324 535Q324 587 347 634T421 754Q435 774 448 774Q457 774 466
767Z" />
<glyph unicode="&#x201d;" glyph-name="quotedblright" horiz-adv-x="524" d="M156 395T149 402T137 421Q196 483 226 529T256 613Q256 637 245 650T210 678Q208 679 205 682T203 688Q208 695 222 713T255 747T284 764Q293 764 305 753T326 720T335 669Q335 654
332 637Q323 584 291 536T196 415Q179 395 165 395Q156 395 149 402ZM309 395T304 400T293 417Q390 529 404 607Q406 623 406 629Q406 661 383 679Q382 680 378 683T375 689Q377 695 392 714T425 748T450 764Q457 764 470 754T494 724T504 676Q504 615 462 554T348
415Q330 395 317 395Q309 395 304 400Z" />
<glyph unicode="&#x201e;" glyph-name="quotedblbase" horiz-adv-x="524" d="M60 -151T53 -144T41 -125Q100 -63 130 -17T160 67Q160 91 149 104T114 132Q112 133 109 136T107 142Q112 149 126 167T159 201T188 218Q197 218 209 207T230 174T239 123Q239 108 236
91Q227 38 195 -10T100 -131Q83 -151 69 -151Q60 -151 53 -144ZM213 -151T208 -146T197 -129Q294 -17 308 61Q310 77 310 83Q310 115 287 133Q286 134 282 137T279 143Q281 149 296 168T329 202T354 218Q361 218 374 208T398 178T408 130Q408 69 366 8T252 -131Q234
-151 221 -151Q213 -151 208 -146Z" />
<glyph unicode="&#x2022;" glyph-name="bullet" horiz-adv-x="714" d="M285 177T259 200T233 264Q233 326 273 366T374 406Q419 406 445 384T471 320Q471 260 433 219T331 177Q285 177 259 200Z" />
<glyph unicode="&#x2039;" glyph-name="guilsinglleft" horiz-adv-x="491" d="M401 451Q401 447 389 436L350 401Q277 337 190 253Q225 199 319 77Q321 75 323 72T325 64Q325 59 313 57Q300 53 278 46T243 33Q239 33 237 37T232 43Q99 245 99 254Q100 262 114
276Q256 412 325 477Q330 482 333 482Q337 482 364 471T401 452V451Z" />
<glyph unicode="&#x203a;" glyph-name="guilsinglright" horiz-adv-x="491" d="M411 242T409 231Q406 222 390 209L144 8Q138 3 135 3Q131 3 106 14T72 33Q72 37 87 49L126 79Q212 145 318 232Q293 289 220 408Q216 416 217 421Q217 425 230 428Q244 432 267 439T304
452Q308 452 310 448T313 442Q411 242 409 231Z" />
</font>
</defs>
</svg>
