<svg aria-hidden="true" style="position:absolute;width:0;height:0" xmlns="http://www.w3.org/2000/svg" overflow="hidden"><defs><symbol id="basket" viewBox="0 0 38 32"><path d="M37.815 7.814h.002l-5.28 11.733c-.26.578-.823.99-1.487 1.035l-15.206 1.013.879 2.509H33.28a3.522 3.522 0 0 1 0 7.042 3.521 3.521 0 0 1-3.52-3.52H13.333c0 1.943-1.577 3.52-3.52 3.52a3.521 3.521 0 0 1 0-7.042h3.181L6.219 4.746H2.187a1.76 1.76 0 0 1 0-3.52h5.28c.768 0 1.414.495 1.655 1.18l.006-.002 1.024 2.929h26.061c.973 0 1.76.787 1.76 1.76 0 .256-.058.499-.158.721zM11.386 8.853l3.253 9.295 15.123-1.009 3.729-8.286H11.385z"/></symbol><symbol id="search" viewBox="0 0 32 32"><path d="M30.786 26.636a2.933 2.933 0 1 1-4.149 4.148l-8.597-8.596a11.663 11.663 0 0 1-5.95 1.634C5.61 23.822.357 18.569.357 12.089S5.61.356 12.09.356s11.733 5.253 11.733 11.733c0 2.174-.603 4.204-1.634 5.95l8.597 8.597zM12.089 3.287c-4.86 0-8.8 3.941-8.8 8.802s3.94 8.8 8.8 8.8c4.86 0 8.8-3.94 8.8-8.8s-3.94-8.802-8.8-8.802z"/></symbol></defs></svg>